<?xml version="1.0" standalone="no"?>
<!DOCTYPE svg PUBLIC "-//W3C//DTD SVG 1.1//EN"
 "http://www.w3.org/Graphics/SVG/1.1/DTD/svg11.dtd">
<!-- Created with svg_stack (http://github.com/astraw/svg_stack) -->
<svg xmlns="http://www.w3.org/2000/svg" xmlns:sodipodi="http://sodipodi.sourceforge.net/DTD/sodipodi-0.dtd" version="1.1" width="1756.25" height="1198.75">
  <defs/>
  <g id="id0:id0" transform="matrix(1.25,0,0,1.25,0.0,0.0)"><g transform="translate(0.000000,959.000000) scale(0.100000,-0.100000)" fill="#191610" stroke="none">
<path d="M0 4795 l0 -4795 7025 0 7025 0 0 4795 0 4795 -7025 0 -7025 0 0 -4795z"/>
</g>
</g>
  <g id="id1:id1" transform="matrix(1.25,0,0,1.25,0.0,0.0)"><g transform="translate(0.000000,959.000000) scale(0.100000,-0.100000)" fill="#71d4e3" stroke="none">
<path d="M0 4795 l0 -4795 7025 0 7025 0 0 4795 0 4795 -7025 0 -7025 0 0 -4795z m1625 4505 c16 -16 35 -30 42 -30 16 0 47 -60 36 -71 -4 -4 -25 -10 -45 -12 -21 -2 -41 -7 -45 -10 -3 -4 -18 -7 -32 -7 -14 0 -35 -7 -45 -15 -11 -8 -29 -15 -40 -15 -12 0 -30 -8 -42 -18 -31 -25 -75 -88 -67 -95 3 -4 30 -7 58 -7 48 0 55 3 79 35 33 43 51 44 104 5 56 -40 71 -69 46 -90 -30 -25 -46 -58 -31 -63 9 -4 9 -7 0 -18 -7 -7 -13 -26 -13 -41 0 -16 -7 -31 -15 -34 -14 -6 -13 -8 1 -19 12 -8 14 -14 6 -19 -7 -4 -12 -23 -12 -42 0 -19 -5 -34 -11 -34 -6 0 -9 -6 -6 -13 6 -16 -17 -151 -33 -191 -6 -16 -18 -35 -28 -43 -65 -51 -185 -58 -166 -10 4 10 -4 25 -22 42 -31 29 -43 31 -45 10 -1 -8 -2 -19 -3 -24 -3 -22 -26 -33 -72 -34 l-49 -2 0 67 c0 38 3 68 7 68 13 0 21 90 9 104 -22 27 -98 8 -87 -21 4 -9 2 -21 -3 -27 -5 -6 -9 -24 -10 -41 -1 -55 -2 -65 -12 -70 -5 -4 -9 -16 -9 -27 0 -39 -28 -58 -85 -58 -48 0 -53 2 -57 25 -3 14 -1 28 4 31 5 3 8 13 7 22 -1 10 1 24 4 32 4 8 8 33 10 55 2 22 7 47 12 55 5 8 9 36 8 62 0 28 5 53 13 59 7 6 10 17 8 24 -3 8 1 45 9 82 8 37 15 75 16 83 2 35 14 86 23 97 13 16 65 6 99 -19 18 -14 38 -18 70 -16 l44 3 6 48 c4 41 2 52 -18 73 -13 14 -21 30 -18 35 8 12 92 12 100 -1 3 -5 16 -10 27 -10 12 0 29 -7 39 -16 16 -14 20 -12 58 27 23 24 40 48 38 54 -2 6 -75 11 -198 13 -109 1 -198 7 -203 12 -12 12 -17 12 226 14 177 1 188 2 217 24 17 13 36 20 41 17 6 -3 10 -1 10 4 0 19 15 12 45 -19z m-730 -50 c46 -20 70 -44 60 -60 -4 -6 -1 -18 6 -26 9 -11 10 -17 2 -22 -6 -4 -15 -20 -19 -36 -7 -30 -56 -66 -90 -66 -34 0 -44 20 -44 92 0 54 -4 75 -21 97 -12 16 -18 34 -14 40 8 14 63 5 120 -19z m1862 -289 c18 -20 33 -39 33 -43 0 -4 -16 -23 -36 -42 -31 -30 -36 -42 -41 -93 -2 -32 -9 -64 -15 -70 -6 -7 -8 -13 -5 -13 2 0 -2 -33 -10 -72 -8 -40 -15 -89 -17 -108 -1 -19 -5 -40 -9 -47 -4 -7 -8 -37 -9 -68 -1 -30 -5 -55 -10 -55 -4 0 -8 -13 -8 -28 0 -15 -5 -33 -12 -40 -8 -8 -8 -15 1 -26 8 -10 9 -16 1 -21 -5 -3 -10 -19 -10 -35 0 -16 -5 -32 -11 -36 -7 -4 -7 -10 -1 -16 10 -10 -12 -61 -41 -96 -17 -21 -86 -51 -93 -41 -4 6 -10 6 -18 0 -6 -5 -16 -7 -22 -3 -17 11 -36 51 -29 62 9 15 -47 61 -67 56 -10 -2 -18 -1 -18 4 0 9 78 23 89 16 5 -3 22 7 38 22 30 27 36 45 48 141 3 24 9 61 14 81 10 45 4 48 -89 45 -93 -3 -101 -5 -95 -15 4 -6 2 -17 -4 -23 -5 -7 -12 -35 -13 -63 -2 -27 -9 -59 -16 -70 -6 -12 -9 -24 -5 -27 3 -3 2 -14 -2 -24 -4 -10 -9 -35 -11 -57 -2 -21 -7 -42 -9 -47 -7 -11 -73 -29 -107 -29 -24 0 -28 4 -28 29 0 17 5 33 11 37 7 4 7 10 1 16 -7 7 -7 17 -2 27 5 9 12 37 15 63 3 26 10 50 15 53 5 3 7 19 4 35 -4 16 -2 43 4 60 12 34 19 30 -78 35 -93 4 -103 -3 -131 -95 -29 -95 -79 -161 -194 -256 -72 -60 -192 -120 -285 -144 -113 -29 -350 -50 -373 -32 -7 5 -37 10 -67 11 -30 1 -66 5 -80 10 -14 5 -45 15 -70 22 -25 7 -52 18 -60 24 -8 6 -27 16 -42 22 -18 8 -28 22 -33 45 -7 29 -4 36 31 65 21 19 43 32 48 30 6 -3 28 4 48 14 39 20 118 26 118 9 0 -5 -9 -10 -21 -10 -11 0 -33 -6 -47 -14 -15 -8 -40 -19 -55 -25 -36 -14 -44 -37 -22 -61 22 -24 71 -50 95 -50 9 0 20 -4 26 -9 11 -11 85 -20 219 -27 179 -10 290 22 455 132 112 75 138 112 176 254 30 108 34 131 29 140 -3 5 -1 18 4 29 6 11 13 38 15 61 2 22 6 43 10 47 3 3 6 18 6 32 0 13 10 59 21 100 14 50 18 76 10 79 -7 2 -5 12 5 28 9 13 14 30 11 39 -4 8 -1 17 4 21 6 3 8 16 5 29 -4 15 2 29 17 43 l23 22 39 -20 c22 -11 47 -20 57 -20 9 0 19 -4 22 -9 3 -5 110 -10 236 -10 l231 -2 46 40 45 41 32 -22 c17 -12 46 -38 63 -57z m-1890 -53 c35 -15 73 -48 73 -63 0 -6 -13 -23 -29 -37 -26 -24 -42 -77 -46 -153 0 -5 -3 -12 -7 -15 -4 -3 -8 -32 -10 -65 -1 -33 -7 -63 -12 -66 -5 -4 -5 -13 0 -20 5 -8 9 -16 9 -19 2 -29 78 -80 118 -80 13 0 28 -5 35 -12 17 -17 395 -15 400 2 3 8 8 8 18 -1 9 -7 19 -8 27 -2 18 13 169 11 174 -3 2 -6 -5 -14 -15 -16 -11 -3 -32 -29 -47 -57 -19 -34 -37 -54 -53 -58 -40 -10 -423 4 -477 17 -69 17 -107 39 -175 99 -36 31 -68 51 -83 51 -16 0 -46 -22 -95 -70 -39 -38 -75 -70 -80 -70 -19 0 -72 80 -72 109 0 5 12 13 28 19 15 6 34 13 42 16 8 3 33 16 55 29 36 21 40 29 52 88 8 35 11 69 9 76 -3 6 0 13 6 15 5 2 11 17 12 34 2 17 6 36 10 42 4 7 4 17 1 22 -4 6 -2 16 3 23 5 7 12 31 15 55 l5 42 -34 0 c-19 0 -34 5 -34 10 0 6 13 10 30 10 21 0 36 8 52 30 24 33 50 37 95 18z m-192 -59 c4 -5 -10 -9 -29 -9 -20 0 -36 4 -36 8 0 12 58 13 65 1z m1101 -14 c-8 -8 -18 -15 -22 -15 -3 0 -1 7 6 15 7 8 17 15 22 15 5 0 3 -7 -6 -15z m14 -34 c0 -5 -6 -11 -12 -14 -10 -3 -10 -7 1 -20 7 -10 9 -17 3 -17 -6 0 -13 6 -15 13 -4 9 -8 8 -16 -3 -5 -8 -13 -11 -16 -8 -4 4 4 18 16 32 25 26 39 32 39 17z m1066 -50 c-11 -12 -14 -21 -7 -26 6 -3 11 -10 11 -15 0 -6 -9 -2 -20 7 -18 16 -18 18 -3 35 9 10 21 18 26 18 6 0 2 -9 -7 -19z m-1096 -26 c-10 -12 -10 -18 0 -30 16 -19 3 -20 -16 0 -13 12 -13 17 -2 29 17 20 34 20 18 1z m8159 -52 c13 -37 19 -43 46 -44 16 -1 53 -2 80 -3 28 -1 76 -3 108 -4 l58 -2 -3 -77 -3 -78 -40 0 c-40 0 -40 0 -43 42 l-3 42 -127 3 c-70 2 -181 1 -247 -2 l-120 -5 -3 -42 c-3 -43 -3 -43 -43 -43 l-40 0 3 82 3 81 136 0 c75 0 142 3 149 7 9 6 8 15 -4 38 -9 17 -16 33 -16 36 0 8 33 14 64 13 25 -2 32 -9 45 -44z m-7079 11 c0 -8 -4 -12 -10 -9 -5 3 -10 10 -10 16 0 5 5 9 10 9 6 0 10 -7 10 -16z m5244 -13 c96 -23 156 -137 156 -297 0 -206 -67 -318 -198 -330 -157 -15 -225 78 -226 311 0 132 17 193 74 258 53 60 110 77 194 58z m524 -6 c76 -33 113 -88 132 -203 21 -129 -5 -285 -60 -355 -31 -39 -98 -67 -162 -67 -45 0 -62 5 -94 28 -51 38 -59 48 -81 107 -26 72 -26 291 0 355 23 55 60 106 90 122 55 29 123 34 175 13z m517 -4 c91 -41 130 -132 129 -301 0 -124 -25 -202 -82 -263 -51 -53 -139 -73 -209 -46 -41 15 -92 68 -104 109 -55 182 -31 390 54 468 54 51 144 64 212 33z m-1392 -29 c4 -20 -4 -40 -32 -82 -76 -109 -172 -320 -202 -440 -7 -30 -17 -58 -22 -61 -9 -7 -86 -3 -94 4 -7 8 15 85 53 182 53 135 65 162 111 244 24 41 43 78 43 83 0 4 -63 8 -139 8 -129 0 -140 1 -146 19 -3 11 -3 31 1 45 5 23 11 25 62 28 32 2 125 2 208 0 l152 -3 5 -27z m-4893 8 c0 -5 -4 -10 -10 -10 -5 0 -10 5 -10 10 0 6 5 10 10 10 6 0 10 -4 10 -10z m-15 -114 c0 -18 -3 -22 -13 -14 -9 8 -9 14 -1 24 15 18 14 18 14 -10z m7273 -69 c8 -43 -8 -63 -83 -106 -41 -24 -78 -47 -81 -52 -3 -5 37 -9 88 -10 51 0 118 -1 148 -2 l55 -2 0 -35 0 -35 -150 -5 -150 -5 -5 -73 c-4 -65 -8 -77 -33 -98 -25 -21 -38 -24 -106 -24 -84 0 -91 4 -91 57 0 24 1 24 54 18 70 -9 96 12 96 80 l0 45 -166 0 -165 0 3 38 3 37 150 1 c83 0 155 1 161 2 7 1 14 12 18 25 3 15 24 34 56 51 28 16 48 31 45 34 -4 4 -26 7 -48 7 -23 1 -90 2 -149 3 l-108 2 0 28 c0 16 3 32 7 36 4 3 106 5 227 4 205 -3 221 -4 224 -21z m-7348 -237 c0 -5 -2 -10 -4 -10 -3 0 -8 5 -11 10 -3 6 -1 10 4 10 6 0 11 -4 11 -10z m-750 -88 c0 -4 -6 -14 -12 -20 -10 -10 -10 -15 2 -22 13 -9 13 -11 1 -19 -12 -8 -12 -12 -2 -25 16 -19 1 -22 -18 -3 -11 10 -12 7 -7 -18 l8 -30 -26 28 c-25 27 -26 27 -45 8 -13 -13 -16 -23 -10 -27 6 -4 15 0 20 7 4 7 11 10 16 6 4 -5 1 -12 -7 -17 -8 -5 -11 -12 -7 -16 3 -4 13 -1 22 6 20 17 19 3 -2 -18 -12 -12 -18 -13 -21 -4 -2 6 -11 12 -20 12 -12 0 -13 -3 -4 -12 7 -7 12 -19 12 -27 0 -11 -4 -10 -19 5 -12 12 -15 23 -10 30 5 6 7 18 4 25 -3 9 12 31 35 54 33 32 43 37 50 25 5 -8 12 -11 16 -7 4 4 3 12 -3 18 -9 9 -8 17 0 30 12 19 27 25 27 11z m750 4 c0 -3 -4 -8 -10 -11 -5 -3 -10 -1 -10 4 0 6 5 11 10 11 6 0 10 -2 10 -4z m-1512 -28 c18 -18 15 -26 -11 -24 -17 1 -23 6 -19 19 5 20 13 22 30 5z m136 -2 c-7 -18 -21 -23 -61 -20 -49 2 -50 3 -57 19 -4 12 6 15 59 15 52 0 63 -3 59 -14z m46 4 c0 -5 -7 -10 -15 -10 -8 0 -15 5 -15 10 0 6 7 10 15 10 8 0 15 -4 15 -10z m1307 -41 c-6 -10 -16 -19 -21 -19 -5 0 -2 8 7 18 13 15 14 21 4 32 -10 12 -9 12 5 1 14 -10 15 -16 5 -32z m-17 -64 c-10 -12 -10 -18 1 -32 11 -15 11 -16 -1 -5 -8 6 -18 12 -22 12 -13 0 -9 -28 5 -34 6 -3 1 -3 -11 0 -20 5 -23 3 -18 -14 8 -25 -21 -53 -34 -32 -5 8 -12 11 -16 7 -4 -3 -1 -14 7 -24 12 -15 12 -16 -5 -10 -10 4 -25 2 -34 -5 -12 -10 -16 -10 -19 0 -3 6 -9 12 -15 12 -5 0 -6 -10 -2 -22 6 -19 5 -20 -7 -7 -8 8 -20 22 -28 32 -12 15 -12 17 2 11 9 -3 25 3 38 15 14 13 26 18 32 12 8 -8 66 37 111 86 16 18 31 16 16 -2z m-850 -15 c0 -5 -4 -10 -10 -10 -5 0 -10 5 -10 10 0 6 5 10 10 10 6 0 10 -4 10 -10z m435 -20 c3 -5 1 -10 -4 -10 -6 0 -11 5 -11 10 0 6 2 10 4 10 3 0 8 -4 11 -10z m-481 -25 c-22 -21 -25 -27 -14 -40 16 -20 3 -19 -17 0 -14 14 -12 18 13 40 38 33 53 32 18 0z m66 -25 c0 -5 -2 -10 -4 -10 -3 0 -8 5 -11 10 -3 6 -1 10 4 10 6 0 11 -4 11 -10z m-160 -64 c0 -3 -4 -8 -10 -11 -5 -3 -10 -1 -10 4 0 6 5 11 10 11 6 0 10 -2 10 -4z m-680 -70 c0 -3 -4 -8 -10 -11 -5 -3 -10 -1 -10 4 0 6 5 11 10 11 6 0 10 -2 10 -4z m7361 -1215 c23 -18 24 -27 26 -138 l2 -118 61 -7 c76 -9 83 -13 76 -51 -8 -41 -47 -74 -96 -82 -22 -4 -44 -14 -49 -24 -14 -26 -24 -91 -14 -91 5 0 33 20 62 45 66 56 86 59 78 10 -7 -42 -1 -40 83 29 30 25 72 57 93 71 55 37 86 112 77 186 -8 73 -21 89 -74 89 -65 0 -81 26 -45 69 14 17 33 25 67 28 39 4 55 0 94 -25 47 -31 49 -35 63 -129 4 -24 11 -43 16 -43 5 0 28 12 50 26 42 26 111 54 135 54 7 0 21 -11 30 -25 16 -25 15 -33 -9 -148 -60 -280 -64 -336 -25 -425 10 -24 18 -50 18 -59 0 -8 28 -46 63 -84 49 -55 79 -78 142 -110 43 -21 87 -39 98 -39 10 0 26 -4 36 -10 10 -5 40 -12 67 -15 27 -3 61 -8 76 -11 35 -7 68 3 68 20 0 8 -27 70 -61 140 -33 69 -59 131 -56 138 3 8 45 -28 105 -88 76 -78 108 -118 132 -170 l32 -67 -21 -44 -21 -43 -87 0 c-92 0 -187 16 -263 45 -25 9 -64 21 -88 25 -94 20 -266 165 -303 257 -22 55 -33 64 -43 38 -7 -20 -82 -20 -116 0 -31 18 -104 19 -117 3 -11 -15 -48 -206 -41 -213 2 -3 45 12 94 32 103 43 177 50 200 18 12 -16 11 -24 -10 -59 -24 -41 -50 -54 -223 -107 -36 -11 -43 -25 -15 -33 18 -5 46 -3 122 9 58 9 97 -16 87 -57 -8 -30 -68 -72 -126 -88 -37 -10 -41 -14 -41 -43 0 -57 10 -79 34 -74 12 3 39 10 61 16 108 26 181 33 269 23 111 -12 123 -23 96 -79 -11 -23 -25 -43 -32 -46 -7 -2 -74 -2 -149 1 -145 5 -217 -1 -242 -21 -13 -11 -13 -23 -1 -112 18 -131 17 -237 -1 -360 -19 -128 -29 -155 -65 -190 l-30 -29 -108 18 c-127 20 -310 60 -319 70 -20 20 92 40 271 50 58 3 94 10 104 19 18 19 42 145 42 222 0 136 -13 255 -27 255 -7 0 -64 -25 -126 -57 -231 -116 -245 -122 -345 -149 -72 -19 -196 -19 -212 1 -29 35 25 117 88 131 15 3 32 7 39 9 16 5 36 -22 29 -40 -14 -37 58 -12 271 94 89 44 178 87 197 95 44 18 59 46 48 88 -11 44 -28 45 -85 7 -46 -30 -49 -31 -67 -14 -18 17 -24 16 -119 -15 -108 -34 -135 -33 -153 6 -10 20 -8 29 9 52 22 29 48 39 108 41 51 2 249 81 253 101 6 34 -22 53 -79 51 -59 -1 -165 -21 -222 -42 -34 -12 -38 -11 -63 12 -14 13 -37 45 -50 72 -34 66 -53 87 -98 107 -38 18 -41 18 -88 -1 -68 -27 -92 -24 -122 12 -33 39 -25 57 48 92 30 15 59 34 63 41 4 8 40 38 78 66 94 70 145 119 160 155 19 45 30 161 15 170 -6 4 -44 -12 -83 -35 -76 -43 -171 -84 -223 -95 -40 -8 -79 8 -100 41 -17 25 -17 27 -1 39 9 7 42 15 73 19 52 6 232 86 331 147 38 23 39 29 48 136 l7 82 -26 7 c-30 7 -66 48 -66 74 0 17 34 54 60 63 31 11 69 6 91 -12z m-6202 -17 c24 -30 27 -81 9 -131 -15 -42 -7 -49 34 -28 116 59 245 70 306 26 30 -21 32 -25 26 -64 -4 -23 -16 -58 -27 -77 -50 -85 -205 -229 -362 -336 -44 -30 -101 -74 -128 -97 -46 -42 -48 -46 -59 -123 -13 -92 -5 -149 22 -164 18 -10 20 -22 20 -110 0 -114 1 -116 80 -77 42 21 47 27 79 112 32 84 47 192 29 210 -8 8 -138 -52 -138 -64 0 -15 -32 -22 -46 -10 -17 14 -18 49 -3 81 9 21 105 86 152 104 14 5 18 14 14 33 -10 48 22 67 84 51 30 -8 54 -7 102 4 103 25 140 28 211 16 71 -11 150 -49 160 -77 8 -20 -38 -99 -67 -114 -12 -7 -67 -51 -122 -99 -55 -47 -116 -96 -136 -108 -19 -12 -44 -30 -54 -42 -18 -20 -18 -20 6 -20 13 1 76 12 139 26 63 14 140 28 170 32 l55 7 -53 38 c-49 35 -71 61 -60 73 3 2 30 -7 61 -21 71 -31 216 -71 286 -79 29 -3 83 -19 118 -36 62 -28 65 -32 58 -57 -3 -16 -17 -39 -30 -53 -23 -23 -27 -24 -67 -11 -137 41 -144 42 -273 38 -121 -3 -335 -35 -460 -70 -71 -20 -137 -110 -230 -317 -11 -25 -31 -61 -46 -80 -14 -19 -31 -48 -39 -63 -8 -15 -28 -37 -46 -48 -28 -17 -36 -18 -53 -7 -27 17 -26 24 5 65 14 18 34 53 45 77 10 24 26 49 34 56 8 7 15 18 15 25 0 7 16 47 35 89 32 71 42 106 30 106 -3 0 -42 -18 -87 -40 -46 -22 -88 -40 -94 -40 -6 0 -17 -6 -23 -14 -13 -15 -114 -66 -132 -66 -5 0 -29 -9 -52 -19 -23 -10 -51 -20 -61 -22 -26 -5 -35 -44 -25 -105 19 -117 4 -172 -45 -160 -24 6 -105 97 -195 221 -83 114 -85 116 -161 109 -60 -6 -70 -4 -89 15 -32 32 -26 54 22 84 60 38 367 342 368 364 0 10 2 26 4 37 2 10 7 74 11 142 7 123 7 124 -15 124 -12 0 -76 -25 -141 -55 -104 -48 -128 -56 -189 -58 -65 -2 -72 0 -100 27 -37 35 -38 46 -8 74 32 30 102 40 127 17 24 -22 34 -19 196 63 164 82 167 85 165 229 -1 83 -5 114 -23 154 -17 41 -19 58 -12 87 8 31 14 37 44 44 50 10 97 -7 105 -39 3 -15 5 -73 4 -130 -3 -126 2 -132 107 -158 82 -21 103 -35 81 -56 -7 -8 -16 -22 -20 -32 -3 -9 -21 -23 -39 -31 -108 -46 -139 -61 -152 -75 -16 -18 -38 -222 -26 -235 5 -4 33 17 64 48 80 80 96 75 60 -19 -10 -27 -96 -150 -133 -192 -31 -33 -36 -383 -6 -383 7 0 37 11 66 24 30 13 91 35 136 50 45 15 87 34 94 42 12 15 9 132 -10 323 -9 87 -1 138 32 211 20 44 154 183 267 277 119 98 240 226 240 252 0 17 -6 21 -32 21 -95 -1 -226 -58 -334 -147 -47 -38 -88 -43 -104 -13 -15 28 -3 66 29 93 15 12 49 60 76 106 45 79 47 86 36 120 -10 32 -9 38 10 54 30 24 54 21 78 -9z m9596 -48 c17 -23 20 -44 22 -134 l1 -107 34 -7 c18 -4 62 -12 98 -18 36 -6 69 -15 74 -20 5 -5 2 -27 -8 -54 -16 -43 -20 -45 -64 -51 -89 -12 -144 -29 -158 -50 -14 -21 -37 -145 -28 -154 2 -3 35 25 72 62 93 92 122 89 61 -7 -16 -27 -24 -46 -17 -43 41 15 220 141 241 169 32 43 74 159 83 225 9 75 1 99 -40 113 -36 12 -49 30 -40 55 17 42 124 49 124 8 0 -9 6 -13 15 -9 9 3 22 -5 32 -21 15 -22 18 -47 16 -125 -1 -55 3 -98 8 -98 5 0 31 15 57 34 81 57 108 68 145 58 28 -8 32 -12 30 -40 -2 -17 -17 -73 -33 -124 -41 -125 -50 -184 -57 -378 -6 -156 -5 -168 17 -215 35 -79 103 -142 179 -165 67 -21 204 -27 231 -10 13 8 12 13 -5 42 -10 18 -35 54 -55 81 -48 62 -92 145 -85 157 11 18 23 11 87 -51 35 -33 79 -72 98 -87 77 -57 123 -139 101 -180 -6 -11 -11 -30 -11 -41 0 -32 -37 -49 -133 -61 -83 -10 -94 -9 -182 16 -142 40 -200 76 -263 165 -28 41 -55 74 -60 74 -4 -1 -24 -9 -45 -20 -45 -23 -90 -12 -95 22 -3 22 -27 33 -74 33 -44 0 -59 -34 -69 -162 -14 -157 -51 -226 -98 -184 -28 26 -61 118 -61 172 0 25 -5 78 -11 117 -9 64 -15 75 -47 103 -24 21 -33 36 -29 47 7 19 25 23 119 32 l68 7 15 51 c17 57 38 187 31 194 -8 8 -81 -35 -124 -73 -25 -23 -49 -56 -57 -79 -16 -50 -34 -54 -72 -17 -22 23 -33 28 -46 20 -53 -29 -81 -181 -73 -403 2 -88 10 -173 15 -188 6 -16 11 -43 11 -61 0 -26 6 -35 33 -49 17 -9 50 -30 72 -47 37 -28 43 -29 73 -18 34 13 61 5 70 -21 6 -18 -62 -77 -113 -97 -45 -17 -46 -17 -71 7 -14 13 -39 48 -56 77 -17 30 -43 62 -59 71 -54 33 -116 126 -138 207 -6 23 -21 53 -32 68 -20 26 -25 27 -110 25 -50 -1 -91 0 -93 2 -1 2 -12 20 -24 39 -26 44 -17 62 47 94 49 25 214 170 274 241 31 37 36 50 51 159 10 65 15 120 13 122 -2 3 -49 -19 -103 -47 -175 -91 -283 -117 -339 -81 -16 10 -36 31 -44 45 -12 23 -12 31 -1 53 14 25 57 54 80 54 8 0 9 -10 5 -29 -5 -24 -2 -30 14 -36 41 -13 182 41 314 120 88 54 92 58 104 103 16 67 15 163 -2 212 -8 23 -15 62 -15 87 0 36 4 45 23 52 29 11 57 0 82 -33z m-6304 -17 c21 -21 21 -49 3 -111 -7 -25 35 -24 122 3 81 25 160 22 181 -7 31 -42 1 -119 -69 -176 -24 -20 -86 -78 -138 -130 -95 -94 -203 -190 -293 -262 -46 -36 -48 -41 -43 -75 3 -20 10 -85 16 -146 12 -136 18 -165 34 -165 29 0 102 107 124 180 6 19 14 54 17 78 l7 42 -50 0 c-33 0 -56 6 -66 16 -29 29 -18 44 59 81 48 23 62 35 71 61 16 51 27 57 73 43 38 -11 46 -9 133 28 196 83 268 97 344 65 47 -20 104 -62 104 -78 0 -22 -63 -88 -163 -169 -138 -111 -149 -122 -142 -149 7 -29 -28 -88 -53 -88 -27 0 -114 -31 -133 -46 -8 -8 -21 -14 -27 -14 -18 0 -82 -43 -136 -92 -41 -37 -66 -75 -120 -180 -190 -368 -237 -428 -291 -368 -35 38 3 146 66 185 31 20 49 48 103 155 71 141 84 187 38 134 -22 -26 -31 -30 -50 -23 -33 13 -39 38 -45 209 -4 111 -11 175 -26 225 -22 77 -18 93 27 109 17 6 121 98 237 211 194 188 262 261 253 270 -2 3 -33 -1 -69 -7 -63 -12 -79 -21 -224 -123 -56 -39 -71 -42 -97 -18 -30 27 -21 55 41 121 58 62 101 134 101 169 0 10 3 28 6 41 8 29 47 29 75 1z m-510 -96 c10 -11 14 -47 14 -122 0 -58 5 -113 10 -122 14 -23 49 -39 84 -39 29 0 61 -22 61 -42 0 -27 -38 -69 -84 -92 -28 -14 -56 -26 -62 -26 -21 0 -36 -29 -50 -93 -14 -65 -18 -147 -8 -147 4 0 24 15 44 34 42 37 80 61 80 49 0 -4 -8 -28 -17 -53 -15 -41 -42 -84 -123 -195 -16 -23 -31 -59 -35 -85 -3 -25 -8 -59 -11 -75 -2 -17 -6 -156 -8 -310 -2 -154 -7 -288 -11 -297 -4 -10 -15 -20 -26 -23 -52 -17 -106 62 -154 226 -48 165 -69 195 -118 171 -45 -22 -64 -22 -90 -1 -50 39 -29 76 103 181 25 20 88 78 142 130 77 75 97 101 101 128 3 19 12 85 21 145 9 61 16 118 16 128 0 23 -32 22 -100 -4 -95 -36 -233 -69 -291 -69 -46 0 -59 4 -78 24 -19 20 -21 28 -12 45 15 28 45 43 58 30 21 -21 227 32 365 93 66 30 67 31 75 77 4 25 8 110 7 188 0 133 1 142 20 152 32 15 62 13 77 -6z m1509 -991 c0 -20 9 -69 20 -107 25 -89 53 -299 44 -339 -15 -69 -40 -102 -106 -134 -139 -69 -310 -97 -499 -83 -211 17 -293 49 -349 137 -40 63 -57 182 -41 290 6 43 14 115 17 159 6 94 19 115 60 96 l27 -12 -6 -141 c-6 -174 4 -258 41 -317 33 -54 66 -65 251 -82 135 -12 195 -8 315 22 165 42 163 39 175 309 9 201 16 240 42 240 5 0 9 -17 9 -38z m6536 -314 c74 -50 81 -58 118 -132 62 -126 62 -250 0 -291 -30 -19 -46 -12 -102 49 -55 59 -69 90 -52 111 7 9 21 13 35 9 34 -8 38 10 14 58 -31 61 -88 125 -134 152 -93 55 -98 96 -12 96 47 0 62 -6 133 -52z m-10318 17 c72 -33 156 -120 192 -197 36 -77 63 -223 48 -253 -17 -33 -50 -65 -68 -65 -26 0 -50 54 -61 141 -5 45 -19 99 -29 120 -32 62 -80 129 -106 145 -28 19 -87 111 -79 125 10 16 48 10 103 -16z m9664 -36 l70 -31 88 20 c129 28 146 9 42 -48 -31 -18 -74 -48 -95 -66 -54 -49 -84 -46 -150 15 -30 26 -75 56 -100 66 -48 18 -64 37 -44 53 37 30 108 27 189 -9z m-1062 -18 c5 -11 10 -56 10 -99 l0 -80 35 -21 c35 -20 41 -38 26 -75 -6 -17 -68 -45 -98 -46 -36 0 -69 125 -58 220 11 94 58 150 85 101z m-2101 -2174 c60 -16 72 -47 33 -87 -23 -22 -41 -29 -88 -34 -32 -4 -83 -11 -113 -16 -30 -6 -70 -10 -90 -10 l-36 0 30 -19 c69 -43 75 -57 76 -182 1 -63 -4 -190 -11 -283 -6 -92 -8 -172 -3 -176 4 -5 64 -2 133 6 299 33 391 6 319 -94 -15 -20 -26 -22 -155 -27 -76 -3 -170 -10 -209 -17 -59 -11 -72 -17 -82 -39 -8 -15 -10 -40 -7 -58 l7 -31 71 0 c89 0 125 -10 160 -45 64 -63 46 -185 -53 -368 l-31 -57 28 -17 c15 -9 36 -24 47 -34 11 -9 45 -30 75 -45 112 -58 257 -188 303 -271 35 -66 41 -151 13 -182 -25 -27 -61 -27 -81 2 -67 96 -88 129 -113 182 -25 52 -42 70 -122 129 -50 38 -119 84 -152 102 -75 39 -77 38 -203 -63 -49 -40 -106 -78 -125 -84 -19 -7 -57 -22 -84 -35 -64 -31 -157 -33 -185 -5 -10 10 -32 48 -50 85 -17 36 -37 66 -44 66 -8 0 -25 -15 -38 -34 -31 -43 -140 -141 -181 -162 -41 -21 -100 -21 -131 -1 -51 33 -34 97 20 76 19 -7 32 -6 50 6 42 28 167 152 186 184 18 30 18 31 -5 54 -14 13 -42 27 -65 30 -47 8 -57 18 -48 47 12 38 79 42 153 10 l44 -20 19 23 c22 26 66 114 71 142 4 26 -24 24 -90 -6 -191 -88 -210 -93 -243 -63 -28 26 -5 59 64 94 33 17 67 30 75 30 9 0 45 16 81 36 119 66 219 56 241 -25 8 -31 6 -50 -10 -102 -11 -35 -29 -77 -40 -94 -40 -58 -70 -124 -59 -130 13 -9 37 12 56 49 8 17 26 43 39 57 13 14 32 47 42 75 30 81 50 112 129 195 l76 80 -26 27 c-15 15 -30 42 -33 60 -4 18 -14 34 -25 37 -11 4 -19 13 -19 21 0 8 -8 14 -17 14 -30 0 -210 -77 -408 -175 -284 -141 -473 -195 -519 -149 -19 18 -19 22 -6 60 11 29 68 74 146 113 23 11 54 30 70 43 42 34 122 73 131 65 9 -10 -81 -90 -133 -117 -22 -12 -53 -32 -70 -46 l-29 -25 41 5 c23 3 75 19 115 36 41 16 81 30 90 30 8 0 21 6 27 13 7 6 52 32 100 57 l87 45 3 50 c3 61 -9 85 -32 66 -30 -25 -18 16 18 63 37 49 50 92 66 218 9 72 8 100 -5 154 -8 36 -20 75 -27 87 -6 12 -14 46 -17 77 l-6 55 -72 35 c-40 19 -72 38 -73 42 0 10 60 24 182 42 70 10 171 37 300 79 106 35 209 69 228 74 47 15 165 14 219 0z m3041 -56 c20 -15 26 -29 30 -76 l5 -58 60 -39 c33 -21 71 -46 85 -55 14 -9 35 -29 48 -44 l23 -29 -22 -40 c-23 -40 -53 -52 -75 -30 -20 20 -108 23 -167 6 -49 -14 -60 -23 -89 -66 -18 -27 -84 -103 -146 -169 -62 -66 -108 -122 -102 -126 5 -3 31 3 57 13 198 80 280 102 377 102 70 0 96 -9 96 -31 0 -11 -4 -19 -9 -19 -5 0 -11 -13 -14 -29 -5 -25 -12 -30 -54 -39 -26 -6 -86 -14 -133 -18 -87 -7 -130 -17 -130 -31 1 -5 23 -18 50 -31 27 -13 71 -42 97 -66 26 -23 73 -59 104 -79 31 -21 76 -54 100 -75 24 -21 60 -49 79 -62 19 -13 64 -47 100 -76 71 -57 180 -114 219 -114 67 0 381 -186 381 -225 0 -30 -49 -28 -138 4 -347 127 -457 177 -528 241 -23 21 -50 43 -61 49 -29 15 -68 47 -137 115 -34 32 -77 66 -96 76 -19 10 -61 41 -93 69 -32 28 -66 52 -75 53 -29 2 -36 4 -85 26 -55 25 -76 27 -112 10 -25 -11 -129 -130 -156 -178 -8 -14 -21 -34 -30 -45 -9 -11 -30 -45 -46 -75 -106 -196 -280 -455 -367 -547 -78 -83 -109 -93 -145 -47 -34 43 -28 87 20 139 44 48 86 61 76 25 -9 -37 12 -21 55 41 163 234 308 466 308 495 0 6 7 17 15 24 8 7 15 17 15 22 0 12 -13 9 -123 -21 -71 -19 -79 -20 -101 -6 -37 24 -41 56 -10 83 14 12 36 22 50 22 31 0 73 22 139 70 61 45 205 179 205 190 0 14 -43 81 -72 112 -28 29 -28 29 -134 27 -105 -3 -107 -2 -130 25 -30 34 -30 38 4 58 23 14 43 16 98 11 40 -3 87 0 112 6 40 11 42 14 42 50 0 62 -38 160 -86 221 -24 31 -44 60 -44 66 0 5 19 15 41 22 53 16 76 3 117 -70 28 -51 36 -76 63 -200 11 -55 14 -58 42 -58 24 0 146 46 206 79 21 11 66 105 80 167 7 32 10 76 6 103 -11 79 35 102 105 52z m-6977 -81 c16 -26 -31 -88 -73 -96 -80 -15 -198 -48 -239 -67 -97 -45 -180 -158 -197 -269 -7 -40 -6 -41 17 -35 76 21 99 20 138 -8 62 -42 77 -105 38 -151 -29 -33 -52 -27 -60 15 -8 38 -42 56 -91 47 -30 -6 -36 -12 -41 -39 -4 -18 -5 -51 -3 -72 l3 -40 95 -31 c114 -37 132 -57 111 -122 -14 -40 -42 -62 -81 -62 -14 0 -20 8 -22 32 -3 29 -8 34 -52 46 -34 10 -51 11 -59 3 -14 -14 -13 -102 2 -129 6 -11 11 -58 11 -104 l1 -83 86 90 c112 118 134 153 143 234 24 202 30 267 32 368 3 120 -4 143 -39 125 -11 -6 -25 -7 -33 -2 -25 15 13 78 57 97 48 20 80 9 111 -37 23 -34 24 -39 18 -185 -3 -82 -8 -167 -12 -189 -10 -62 12 -36 123 142 8 13 30 41 50 63 27 30 43 39 67 39 50 0 64 -40 65 -182 1 -27 6 -48 11 -48 22 0 163 157 190 210 15 31 38 93 51 138 18 67 20 87 10 108 -8 19 -17 25 -37 22 -30 -3 -51 20 -41 45 9 25 77 49 115 42 55 -10 72 -36 72 -107 0 -60 -6 -94 -28 -165 -6 -18 -7 -35 -4 -37 4 -2 32 4 62 15 37 13 81 19 141 19 85 0 88 -1 112 -30 21 -24 25 -37 20 -68 -21 -142 -238 -342 -371 -342 -34 0 -57 6 -75 20 -33 26 -46 25 -57 -5 -5 -14 -27 -63 -49 -108 -108 -227 -141 -299 -141 -305 1 -25 -101 -232 -130 -265 -32 -36 -38 -39 -58 -28 -46 25 -41 85 16 171 20 30 71 131 114 225 75 164 93 214 66 187 -7 -7 -22 -12 -35 -12 -41 0 -52 35 -61 193 -4 83 -11 148 -17 149 -14 2 -70 -80 -84 -123 -6 -20 -30 -67 -52 -104 -23 -37 -47 -82 -55 -100 -16 -40 -35 -266 -29 -350 3 -33 7 -87 9 -120 2 -33 9 -73 15 -88 6 -16 11 -54 11 -85 0 -31 5 -101 12 -155 13 -104 10 -118 -29 -144 -18 -12 -24 -11 -52 13 -18 15 -43 49 -57 76 -24 47 -30 68 -55 188 -6 30 -18 68 -26 83 -18 33 -10 97 12 97 7 0 22 -24 33 -52 31 -83 44 -108 54 -102 4 3 6 8 4 12 -2 4 -12 104 -21 222 -9 118 -18 216 -19 218 -2 2 -45 -44 -95 -102 -96 -110 -219 -224 -272 -252 -47 -24 -97 -11 -114 29 -8 20 -10 36 -4 42 5 5 9 16 9 25 0 8 25 41 55 72 l54 57 11 178 c12 202 14 224 41 423 32 236 68 321 182 438 34 34 57 63 52 63 -6 1 -48 1 -95 -1 -74 -2 -89 1 -113 20 -35 28 -35 56 1 63 15 3 81 11 147 18 66 6 174 19 240 29 126 17 172 15 188 -10z m-3239 -32 c18 -29 -25 -91 -69 -100 -66 -14 -239 -76 -284 -101 -44 -26 -71 -26 -71 -1 0 7 -16 16 -37 19 -76 12 -110 25 -148 59 -36 30 -38 35 -25 51 13 15 26 17 103 12 77 -5 98 -3 156 17 36 13 104 31 151 41 47 9 90 19 95 21 6 1 34 2 64 1 39 -1 57 -7 65 -19z m344 -42 c46 -53 55 -127 46 -403 -7 -243 -4 -263 35 -263 9 0 34 18 56 38 60 57 194 220 212 257 16 33 15 34 -12 57 -26 23 -27 26 -16 61 7 21 21 42 32 48 24 12 83 -2 110 -27 29 -26 25 -97 -10 -169 -31 -66 -34 -69 -176 -226 -112 -122 -145 -142 -212 -121 -20 6 -39 9 -43 7 -11 -7 -32 -108 -29 -134 3 -16 19 -34 45 -50 147 -92 197 -127 312 -225 112 -95 207 -147 302 -166 47 -9 161 -45 195 -61 53 -25 130 -80 137 -98 10 -29 -13 -43 -59 -36 -161 27 -311 63 -379 90 -94 38 -241 140 -373 259 -147 132 -190 162 -216 152 -8 -3 -24 -24 -36 -48 -60 -119 -176 -262 -257 -321 -49 -35 -123 -64 -139 -54 -5 3 -15 2 -23 -3 -11 -7 -11 -18 -2 -62 7 -29 15 -85 18 -123 6 -66 5 -73 -18 -100 l-25 -28 -39 28 c-38 27 -104 119 -104 147 -1 7 -8 31 -16 53 -20 51 -64 250 -64 287 0 21 5 28 19 28 14 0 23 -17 41 -82 26 -91 58 -168 70 -168 8 0 3 416 -6 458 -2 12 -8 22 -12 22 -4 0 -50 -48 -102 -107 -218 -247 -367 -383 -421 -383 -9 0 -31 16 -47 34 -39 44 -34 63 31 128 46 46 52 49 86 43 50 -8 77 18 61 61 -12 31 -15 278 -5 372 25 224 96 464 154 516 18 16 21 17 27 3 3 -8 -2 -29 -10 -46 -26 -48 -21 -61 22 -62 126 -2 156 -7 174 -29 23 -28 23 -54 1 -91 -21 -36 -64 -40 -86 -8 -13 18 -21 20 -60 14 -51 -8 -69 -23 -87 -76 -24 -66 -14 -73 101 -64 83 5 104 4 124 -9 42 -27 33 -65 -25 -120 -58 -54 -93 -59 -98 -14 -4 33 -14 37 -78 31 -50 -5 -52 -6 -58 -42 -11 -67 -7 -104 15 -127 23 -24 24 -38 14 -109 l-8 -50 64 60 c60 57 90 91 166 188 62 79 66 93 74 237 4 74 11 178 15 231 8 114 1 124 -56 84 -72 -50 -89 -6 -31 80 19 29 39 44 70 54 41 13 44 13 84 -17 50 -35 57 -65 46 -188 -4 -43 -8 -109 -8 -146 l-1 -68 31 0 c29 0 31 -2 24 -27 -3 -16 -23 -55 -43 -88 l-37 -60 0 -280 0 -280 22 -3 c73 -11 226 145 293 298 35 79 50 150 32 150 -6 0 -24 -13 -40 -30 -59 -58 -90 -32 -111 94 -7 38 -14 119 -16 180 -2 62 -6 133 -10 158 -6 42 -5 48 18 63 19 12 30 14 45 6 23 -12 27 -33 42 -201 10 -101 17 -133 36 -167 30 -52 68 -60 85 -17 5 15 7 29 5 32 -3 2 -1 13 5 24 17 31 49 342 50 488 2 141 -7 186 -38 196 -59 18 -64 48 -13 75 50 27 74 24 108 -15z m4141 -805 c6 -33 14 -77 17 -98 2 -21 16 -108 29 -194 14 -86 25 -167 25 -179 0 -32 -61 -85 -119 -105 -27 -9 -55 -23 -61 -31 -7 -7 -25 -14 -41 -14 -15 0 -40 -5 -56 -11 -15 -6 -93 -15 -173 -20 -116 -7 -161 -6 -230 6 -142 25 -156 32 -216 103 l-54 63 0 181 0 181 -40 -6 c-30 -4 -40 -2 -40 9 0 8 5 14 10 14 6 0 15 11 20 24 16 44 128 46 152 3 8 -15 11 -74 9 -184 -1 -105 1 -163 8 -168 6 -3 11 -17 11 -29 0 -34 15 -42 110 -61 94 -18 259 -21 336 -5 27 6 67 13 90 16 22 4 65 18 95 33 l54 26 7 200 c6 167 13 291 17 303 1 1 7 2 15 2 8 0 18 -21 25 -59z m5408 -61 c54 -32 66 -69 71 -220 2 -74 5 -136 6 -137 1 -2 18 2 36 7 29 8 44 5 98 -20 35 -17 78 -30 96 -30 48 0 59 -12 51 -51 -9 -41 -26 -74 -59 -113 l-25 -29 -33 35 c-18 20 -49 55 -70 78 -27 31 -43 41 -60 38 -23 -3 -23 -3 -29 -198 -7 -213 -16 -280 -44 -310 -15 -16 -21 -18 -40 -7 -26 14 -125 129 -148 172 -9 17 -27 44 -41 60 l-25 30 -28 -35 c-15 -19 -37 -48 -48 -65 -28 -42 -56 -43 -89 -5 -28 34 -28 39 -10 189 18 158 65 247 110 210 13 -11 15 -28 9 -106 -4 -51 -3 -93 2 -93 5 0 32 18 62 40 83 63 108 51 64 -29 l-28 -50 57 -58 c41 -41 61 -54 68 -47 17 17 21 187 10 423 -10 231 -9 227 -71 260 -46 25 -49 48 -7 66 45 20 77 18 115 -5z m540 -331 c43 -16 110 -76 137 -122 14 -23 31 -71 39 -106 14 -61 14 -66 -6 -108 -18 -37 -26 -43 -46 -41 -32 4 -71 69 -71 119 0 65 -55 148 -135 205 -30 21 -30 22 -11 43 21 23 50 27 93 10z"/>
<path d="M1177 8985 c-9 -6 -17 -22 -17 -34 0 -12 -4 -30 -10 -40 -7 -14 -4 -23 12 -37 15 -14 22 -16 25 -7 3 8 14 11 27 7 29 -7 58 23 35 36 -11 7 -11 12 -1 22 14 14 16 54 3 63 -5 3 -12 1 -16 -5 -4 -6 -13 -7 -23 -1 -11 6 -23 5 -35 -4z"/>
<path d="M1401 8974 c-21 -26 -27 -67 -15 -98 7 -19 30 -21 37 -3 2 6 8 9 12 5 12 -12 -15 -38 -40 -38 -30 0 -46 -21 -44 -56 1 -16 -1 -36 -5 -45 -8 -18 17 -29 69 -32 24 -2 32 4 44 28 8 16 16 46 18 67 2 32 0 38 -17 38 -11 0 -20 5 -20 10 0 6 6 10 13 10 16 0 42 45 51 86 8 37 -15 64 -38 45 -10 -8 -16 -9 -21 -1 -10 16 -22 12 -44 -16z"/>
<path d="M1130 8810 c-9 -23 -10 -33 -1 -44 9 -11 8 -15 -5 -20 -25 -10 0 -33 42 -38 42 -5 53 7 57 58 1 21 6 44 10 50 9 15 -14 24 -58 24 -27 0 -35 -5 -45 -30z"/>
<path d="M1342 8674 c-7 -8 -10 -19 -6 -25 4 -6 2 -14 -3 -18 -15 -9 -23 -90 -10 -98 39 -24 124 10 112 46 -2 9 1 28 9 43 13 24 12 29 -5 47 -22 24 -30 26 -46 10 -8 -8 -13 -8 -17 0 -9 15 -18 13 -34 -5z"/>
<path d="M2103 8927 c-16 -13 -23 -29 -23 -52 0 -19 -7 -60 -15 -91 -8 -32 -14 -59 -12 -60 1 -1 37 -4 79 -5 86 -4 107 9 108 63 0 15 5 30 10 33 8 5 7 11 -1 21 -8 9 -8 18 -1 27 5 6 9 26 8 42 -1 30 -2 30 -65 35 -53 4 -69 2 -88 -13z"/>
<path d="M2409 8910 c-15 -20 -23 -47 -25 -86 -2 -31 -8 -61 -13 -68 -21 -25 5 -36 87 -37 93 -2 111 9 112 68 0 17 5 35 11 39 8 4 7 9 -2 15 -12 7 -11 11 2 24 10 10 14 27 11 45 l-4 30 -79 0 c-75 0 -79 -1 -100 -30z"/>
<path d="M2128 8693 l-77 -4 -11 -39 c-6 -21 -9 -42 -8 -47 1 -4 -3 -18 -10 -31 -7 -12 -10 -27 -7 -32 3 -5 0 -19 -7 -30 -20 -31 4 -41 97 -38 61 2 79 6 77 17 -1 7 2 19 8 25 5 7 11 36 12 64 1 29 6 52 10 52 4 0 8 16 8 35 0 19 -3 34 -7 33 -5 -1 -43 -4 -85 -5z"/>
<path d="M2363 8678 c-6 -7 -11 -20 -12 -28 -6 -78 -15 -131 -22 -136 -5 -3 -9 -14 -9 -25 0 -17 8 -19 94 -19 93 0 94 0 105 28 6 15 12 51 12 80 1 29 6 55 10 58 5 3 9 16 9 30 0 24 -1 24 -89 24 -59 0 -92 -4 -98 -12z"/>
<path d="M7984 8572 c-45 -36 -57 -79 -61 -222 -4 -120 -2 -139 15 -170 27 -50 60 -66 108 -55 32 8 42 18 63 59 23 44 25 62 26 160 0 128 -16 198 -53 226 -30 24 -70 25 -98 2z"/>
<path d="M8488 8567 c-14 -12 -31 -31 -36 -42 -18 -36 -32 -162 -27 -237 9 -122 53 -178 128 -164 30 6 41 14 56 44 37 74 45 167 24 297 -10 65 -17 84 -38 103 -33 28 -73 28 -107 -1z"/>
<path d="M8990 8562 c-45 -46 -71 -185 -57 -307 7 -62 12 -74 43 -102 53 -50 119 -40 148 21 35 75 38 275 4 359 -24 62 -91 76 -138 29z"/>
<path d="M1930 8060 c0 -5 5 -10 10 -10 6 0 10 5 10 10 0 6 -4 10 -10 10 -5 0 -10 -4 -10 -10z"/>
<path d="M1330 8100 c0 -5 5 -10 11 -10 5 0 7 5 4 10 -3 6 -8 10 -11 10 -2 0 -4 -4 -4 -10z"/>
<path d="M8948 6299 c-26 -15 -72 -87 -97 -154 -24 -63 -63 -206 -58 -211 2 -2 42 -10 90 -17 74 -12 87 -12 91 0 4 8 6 62 6 119 0 58 7 139 15 180 9 41 13 79 10 84 -8 13 -35 12 -57 -1z"/>
<path d="M8665 6063 c-26 -21 -70 -57 -98 -80 -46 -39 -52 -41 -67 -28 -9 8 -23 15 -31 15 -20 0 -75 -58 -89 -95 -14 -36 -26 -287 -16 -340 l7 -37 77 7 c68 6 182 31 182 40 0 2 -16 26 -35 55 -19 29 -35 64 -35 79 0 14 -7 58 -16 96 -29 126 -29 132 -2 137 12 3 46 6 73 7 28 1 53 5 57 9 8 8 58 150 58 164 0 16 -18 8 -65 -29z"/>
<path d="M8604 5809 c-3 -6 3 -20 14 -32 19 -19 22 -19 28 -4 13 35 -23 66 -42 36z"/>
<path d="M8223 5728 c-11 -13 -26 -34 -33 -47 -11 -22 -10 -27 10 -43 48 -39 70 -14 70 78 0 40 -17 44 -47 12z"/>
<path d="M2436 5801 c-3 -5 -22 -12 -41 -15 -19 -4 -35 -8 -35 -9 -5 -20 -26 -223 -24 -226 11 -13 248 234 239 249 -8 12 -132 14 -139 1z"/>
<path d="M1425 5321 c-28 -28 -62 -74 -78 -103 l-27 -53 74 -72 c40 -40 78 -73 84 -73 23 0 30 339 7 347 -6 2 -33 -19 -60 -46z"/>
<path d="M12339 6121 c-59 -38 -118 -97 -124 -124 -2 -12 -16 -69 -30 -127 -14 -57 -28 -127 -31 -156 l-6 -51 43 -6 c24 -4 66 -11 93 -17 27 -5 51 -8 53 -6 2 2 8 73 14 157 6 85 19 196 30 248 10 52 19 98 19 103 0 14 -14 9 -61 -21z"/>
<path d="M11556 5514 c-59 -59 -65 -79 -31 -98 11 -5 33 -19 49 -29 23 -16 30 -17 37 -6 8 13 13 189 5 189 -2 0 -29 -25 -60 -56z"/>
<path d="M11990 5535 c0 -14 4 -25 9 -25 12 0 23 29 15 41 -10 18 -24 9 -24 -16z"/>
<path d="M5805 5901 c-44 -16 -105 -40 -135 -54 -54 -24 -99 -62 -87 -73 3 -3 -1 -21 -9 -39 -18 -44 -18 -50 4 -52 9 -1 29 -5 45 -9 22 -5 37 1 85 37 31 24 75 56 97 71 22 15 62 49 89 76 76 78 47 91 -89 43z"/>
<path d="M5554 5649 c-17 -20 -27 -59 -16 -59 17 0 34 28 30 51 -2 18 -5 20 -14 8z"/>
<path d="M4733 5323 c-22 -27 -50 -63 -62 -81 l-23 -33 58 -65 c40 -46 59 -62 64 -52 12 22 23 278 12 278 -6 0 -28 -21 -49 -47z"/>
<path d="M8780 2685 c-14 -7 -43 -17 -65 -20 -38 -6 -215 -55 -224 -62 -2 -1 3 -11 11 -20 9 -10 25 -39 36 -65 12 -27 27 -48 34 -48 7 0 48 11 91 25 84 27 121 25 138 -7 13 -24 2 -75 -21 -98 -16 -16 -24 -17 -53 -8 -41 13 -74 6 -110 -23 -23 -17 -27 -28 -27 -70 0 -43 3 -49 20 -49 12 0 43 11 70 25 78 40 170 29 170 -19 0 -26 -57 -85 -100 -105 -25 -11 -70 -31 -100 -44 -78 -35 -88 -46 -95 -100 -6 -59 2 -97 23 -97 8 0 77 24 151 54 75 29 143 56 152 59 13 4 17 33 22 179 14 354 8 423 -37 459 -14 11 -26 27 -26 35 0 18 -27 18 -60 -1z"/>
<path d="M8960 1645 c-76 -36 -101 -53 -123 -85 -16 -23 -40 -45 -53 -50 -13 -5 -24 -16 -24 -25 0 -8 -21 -59 -46 -113 -44 -91 -81 -205 -92 -281 -4 -31 -3 -33 19 -26 37 12 100 45 139 74 90 66 180 143 180 154 0 7 -27 25 -59 41 -60 28 -110 70 -98 82 13 13 157 4 194 -11 20 -8 44 -13 53 -10 32 10 100 177 100 247 0 31 -24 48 -67 48 -15 0 -71 -20 -123 -45z"/>
<path d="M11910 2331 c-41 -15 -45 -20 -48 -54 -2 -20 0 -37 5 -37 19 1 108 96 96 103 -4 3 -28 -3 -53 -12z"/>
<path d="M5905 2275 c-5 -2 -42 -14 -82 -25 -39 -12 -83 -32 -96 -44 -27 -25 -82 -159 -73 -181 7 -18 58 -20 89 -3 85 45 264 224 244 244 -7 7 -70 14 -82 9z"/>
<path d="M4610 1454 c0 -9 5 -14 12 -12 18 6 21 28 4 28 -9 0 -16 -7 -16 -16z"/>
</g>
</g>
  <g id="id2:id2" transform="matrix(1.25,0,0,1.25,0.0,0.0)"><g transform="translate(0.000000,959.000000) scale(0.100000,-0.100000)" fill="#fbfcfb" stroke="none">
<path d="M0 4795 l0 -4795 7025 0 7025 0 0 120 0 119 -212 1 c-117 0 -3180 1 -6806 1 -3626 0 -6598 2 -6605 4 -9 4 -12 355 -12 1663 l1 1657 272 3 c176 1 272 -1 272 -8 0 -11 -39 -23 -66 -20 -11 1 -117 2 -236 1 l-218 -1 0 -789 c0 -765 3 -853 30 -836 13 8 50 -4 50 -16 0 -5 -15 -9 -34 -9 -21 0 -36 -6 -40 -15 -9 -24 -8 -1587 1 -1596 9 -9 148 -10 1065 -9 542 0 547 0 550 20 4 27 22 27 26 0 l3 -21 817 3 817 3 2 803 2 803 -25 9 c-30 12 -30 18 0 30 l25 9 -3 803 -3 803 -812 3 -811 2 0 -31 c0 -38 -24 -35 -28 4 l-3 27 -544 0 c-498 0 -580 4 -546 24 5 4 2948 6 6540 6 l6531 0 0 220 0 220 -247 0 c-137 0 -1248 1 -2470 2 -1770 2 -2223 6 -2223 16 0 9 130 12 615 12 l615 0 1 28 c1 15 1 70 1 122 0 52 -1 402 -1 777 l-1 682 -27 3 c-35 4 -36 22 -2 26 l26 3 -2 422 c-1 232 -3 591 -4 797 -1 206 -5 381 -9 387 -6 10 -172 13 -747 13 -407 1 -770 1 -807 0 l-68 0 0 -29 c0 -17 -4 -33 -10 -36 -6 -3 -10 4 -10 17 0 51 37 48 -814 49 -438 1 -799 -1 -802 -4 -11 -11 -12 -140 -6 -862 l7 -750 33 -3 c40 -4 38 -25 -4 -32 -26 -5 -29 -9 -32 -48 -5 -64 -32 -49 -32 19 0 22 -5 29 -19 29 -30 0 -33 16 -6 28 l24 11 3 278 c4 397 -6 1320 -14 1328 -5 5 -1437 10 -1579 6 -11 -1 -19 -13 -23 -36 -11 -56 -33 -42 -27 18 1 9 -4 17 -11 17 -7 1 -372 2 -810 5 l-798 4 -1 -147 c-1 -81 -3 -210 -4 -287 -2 -77 -6 -367 -9 -645 -4 -278 -10 -506 -15 -508 -11 -4 -25 202 -17 265 3 26 8 333 12 681 l6 632 -134 1 c-492 3 -1465 4 -1476 1 -6 -2 -12 -14 -12 -26 0 -11 -4 -28 -10 -36 -8 -13 -10 -13 -14 0 -3 8 -6 26 -8 39 l-3 24 -809 -1 c-445 -1 -810 -3 -812 -5 -6 -6 -18 -1322 -14 -1579 0 -35 2 -37 37 -40 52 -4 56 -28 4 -28 l-40 0 -3 -187 c-2 -104 -3 -465 -3 -803 l0 -615 780 -3 c429 -1 794 0 812 3 21 4 34 13 39 27 6 21 7 21 21 -5 l14 -27 357 0 c841 0 1246 1 1248 3 8 8 10 1575 3 1590 -6 9 -16 17 -24 17 -24 0 -17 14 17 33 25 14 33 15 39 5 5 -7 22 -13 38 -13 41 0 44 -19 4 -23 -17 -2 -34 -10 -37 -18 -3 -9 -6 -367 -6 -797 0 -603 3 -782 12 -788 7 -4 373 -8 815 -8 752 -1 803 0 813 17 9 16 11 16 20 1 9 -15 77 -17 747 -16 406 0 771 2 811 5 l72 5 -2 618 c-2 339 0 621 5 625 4 4 9 5 12 3 2 -3 5 -279 5 -614 1 -366 5 -617 11 -627 9 -17 51 -18 807 -18 l797 1 16 21 17 21 6 -21 c7 -22 11 -22 192 -22 152 0 184 -2 184 -14 0 -12 -596 -14 -4337 -13 l-4338 2 2 780 c2 429 5 1014 8 1300 3 286 6 681 7 878 1 317 3 357 17 358 9 0 3073 0 6809 0 l6792 -1 0 1130 0 1130 -7025 0 -7025 0 0 -4795z m1657 4492 c26 -18 63 -72 63 -92 0 -8 -80 -26 -90 -20 -5 3 -11 1 -15 -5 -3 -5 -22 -10 -41 -10 -19 0 -34 -4 -34 -10 0 -5 -16 -12 -35 -16 -25 -4 -47 -20 -76 -53 l-41 -46 31 -6 c47 -10 79 1 102 32 14 20 29 29 47 29 31 0 96 -41 112 -71 12 -21 5 -59 -10 -59 -11 0 -25 -40 -21 -59 1 -8 -2 -17 -8 -20 -6 -4 -11 -29 -12 -56 -1 -28 -6 -61 -11 -75 -5 -14 -10 -42 -10 -63 0 -20 -4 -40 -9 -43 -5 -3 -9 -21 -9 -41 0 -81 -33 -146 -92 -181 -32 -19 -37 -36 -9 -27 11 3 22 1 26 -5 3 -6 12 -7 18 -3 7 4 26 8 42 8 49 2 74 -27 36 -40 -11 -3 -32 -27 -47 -53 -15 -26 -32 -50 -38 -55 -15 -10 -504 -7 -508 4 -2 4 -16 10 -32 13 -32 6 -101 50 -156 101 -60 56 -69 54 -147 -25 -42 -42 -78 -70 -91 -70 -24 0 -66 51 -76 91 -5 25 -1 29 72 64 74 35 79 39 95 85 9 26 17 63 17 82 0 19 4 38 10 44 5 5 11 30 13 54 2 25 7 52 10 60 3 8 7 30 10 48 4 35 -1 37 -94 32 -32 -1 -59 13 -47 25 2 2 32 6 67 9 49 3 69 10 90 29 39 37 64 41 113 19 59 -26 83 -54 69 -81 -6 -11 -20 -25 -30 -30 -17 -10 -26 -46 -36 -151 -2 -14 -7 -45 -13 -70 -6 -24 -9 -46 -7 -49 3 -2 0 -11 -7 -18 -9 -11 -9 -16 2 -23 8 -5 11 -12 7 -16 -10 -11 33 -54 54 -54 9 0 19 -5 21 -12 3 -7 15 -13 29 -14 13 -1 33 -5 44 -10 11 -5 92 -8 180 -8 136 1 171 3 215 14 3 0 -8 8 -23 16 -20 11 -26 20 -22 34 4 12 -2 27 -15 40 -23 23 -40 19 -40 -9 0 -31 -25 -42 -82 -39 -52 3 -53 4 -52 33 2 46 11 116 22 157 11 44 2 55 -43 54 -24 -1 -30 -5 -30 -23 0 -11 -3 -25 -7 -29 -5 -4 -8 -22 -8 -40 0 -18 -5 -45 -12 -61 -6 -15 -10 -35 -9 -44 1 -10 -11 -26 -28 -38 -35 -25 -118 -30 -127 -7 -6 15 23 203 34 220 3 6 7 31 8 58 1 26 6 53 10 59 4 6 8 28 9 48 2 20 13 84 25 144 26 123 38 135 107 99 51 -27 101 -42 117 -36 8 3 16 24 18 52 3 37 -1 51 -19 73 -13 15 -23 30 -23 33 0 15 128 5 163 -13 l38 -19 34 36 c19 20 35 40 35 45 0 4 -84 7 -186 7 -173 0 -224 7 -224 29 0 4 93 8 208 7 179 -1 210 1 227 15 11 9 34 23 50 31 32 16 26 18 102 -35z m-751 -34 c51 -24 70 -45 58 -64 -3 -6 -1 -16 5 -23 8 -10 7 -17 -4 -26 -8 -7 -15 -23 -15 -35 0 -33 -45 -65 -89 -65 -52 0 -61 14 -61 94 0 59 -4 74 -26 103 -14 18 -22 38 -18 44 10 16 88 2 150 -28z m894 -158 c-7 -8 -18 -15 -24 -15 -6 0 -2 7 8 15 25 19 32 19 16 0z m10 -35 c0 -5 -5 -10 -11 -10 -5 0 -7 5 -4 10 3 6 8 10 11 10 2 0 4 -4 4 -10z m954 -99 l37 -44 -35 -36 c-26 -27 -36 -48 -41 -86 -4 -27 -9 -59 -12 -70 -17 -86 -21 -111 -17 -116 2 -4 -3 -20 -11 -35 -8 -16 -12 -37 -9 -46 3 -10 1 -18 -4 -18 -6 0 -10 -10 -11 -22 -1 -13 -2 -46 -4 -75 -1 -28 -5 -55 -9 -59 -5 -4 -8 -20 -8 -35 0 -15 -5 -31 -10 -34 -7 -4 -7 -12 0 -25 7 -13 7 -21 0 -25 -5 -3 -10 -22 -10 -41 0 -19 -4 -34 -8 -34 -5 0 -9 -13 -9 -29 0 -32 -44 -99 -72 -108 -9 -3 -23 -7 -31 -11 -46 -17 -78 -10 -106 21 -17 19 -23 32 -16 35 7 2 12 7 12 12 0 10 -57 40 -77 40 -15 0 -18 16 -4 24 5 3 30 7 55 8 55 2 96 33 96 72 0 14 4 27 9 30 4 3 9 27 10 53 0 27 5 62 10 80 5 17 7 34 3 37 -3 3 -36 6 -73 6 -57 0 -71 -4 -89 -22 -11 -12 -20 -34 -20 -48 0 -14 -5 -31 -12 -38 -9 -9 -9 -12 0 -12 7 0 12 -7 12 -15 0 -8 -4 -15 -8 -15 -4 0 -13 -37 -20 -82 -16 -104 -30 -118 -113 -118 -59 0 -59 0 -59 29 0 17 4 32 10 36 5 3 7 12 3 20 -3 9 0 22 7 30 7 9 10 26 6 40 -4 15 0 39 8 58 9 18 14 46 12 62 -2 17 0 38 5 48 11 19 14 18 -79 23 -52 2 -65 0 -81 -17 -19 -21 -61 -124 -61 -151 0 -9 -16 -30 -35 -47 -19 -17 -35 -34 -36 -38 -1 -18 -143 -128 -206 -161 -101 -52 -102 -52 -118 -52 -8 0 -15 -4 -15 -10 0 -5 -13 -10 -28 -10 -15 0 -32 -4 -38 -10 -10 -10 -125 -29 -219 -36 -35 -3 -109 4 -180 16 -66 11 -141 24 -167 28 -27 5 -58 18 -70 29 -13 11 -33 24 -45 27 -32 10 -46 60 -28 96 16 31 65 60 100 60 11 0 25 4 31 9 11 12 96 17 112 7 18 -11 4 -26 -24 -26 -13 0 -32 -4 -42 -9 -9 -5 -30 -14 -45 -20 -41 -16 -45 -40 -13 -68 15 -12 39 -25 54 -29 15 -3 35 -9 44 -15 10 -5 37 -9 61 -9 24 0 48 -5 54 -11 18 -18 373 1 373 20 0 4 19 14 43 21 23 8 58 26 77 41 19 14 50 34 69 44 42 21 131 110 131 131 0 8 5 25 12 37 21 37 37 90 44 140 4 26 11 50 16 53 5 3 4 12 -3 20 -8 10 -8 18 -1 27 5 6 13 35 17 62 4 28 12 58 16 67 5 9 10 35 11 58 1 22 5 43 10 46 4 3 8 18 8 34 0 16 5 32 10 35 8 5 7 11 -1 21 -9 11 -9 18 -1 26 7 7 12 24 12 39 0 15 5 31 10 34 8 5 7 11 -1 21 -9 11 -4 20 21 45 19 20 34 28 38 22 4 -6 35 -21 69 -32 56 -19 85 -21 285 -21 l223 1 44 39 44 38 32 -21 c18 -12 49 -42 69 -66z m-949 -41 c3 -5 1 -10 -4 -10 -6 0 -11 5 -11 10 0 6 2 10 4 10 3 0 8 -4 11 -10z m-1 -52 c-3 -5 -12 -4 -20 3 -8 6 -17 9 -21 6 -3 -4 6 -16 21 -28 15 -12 25 -24 22 -27 -3 -2 -12 1 -21 8 -9 8 -15 8 -15 2 0 -6 5 -14 11 -18 7 -4 0 -17 -17 -35 -15 -16 -23 -29 -17 -29 6 0 13 6 16 13 2 6 8 9 12 4 5 -4 3 -13 -3 -19 -9 -9 -9 -15 1 -26 10 -13 8 -14 -13 -7 -22 7 -23 6 -12 -8 11 -13 11 -19 0 -36 -7 -12 -16 -21 -20 -21 -5 0 -8 -5 -8 -11 0 -8 5 -7 15 1 9 7 19 10 22 6 4 -4 1 -11 -6 -15 -7 -5 -10 -14 -7 -20 4 -6 0 -11 -10 -11 -14 0 -14 -2 -3 -16 10 -12 10 -17 1 -23 -7 -4 -10 -15 -6 -25 4 -11 -1 -23 -16 -36 -12 -10 -19 -24 -15 -29 3 -6 2 -11 -4 -11 -17 0 -20 15 -10 56 6 21 11 48 12 59 1 11 6 25 10 32 4 6 3 15 -3 18 -8 5 -7 11 1 21 6 7 8 21 5 30 -5 12 -2 15 10 10 14 -5 15 -4 4 9 -10 11 -10 18 -1 29 9 10 9 16 1 21 -8 5 -8 11 1 21 9 11 9 18 1 26 -8 8 -5 18 15 36 19 17 23 26 14 32 -10 6 -9 12 4 28 16 18 19 18 36 4 10 -9 16 -19 13 -24z m1744 -12 c7 -4 21 -5 30 -1 30 13 247 17 289 6 21 -6 50 -22 63 -36 23 -25 24 -28 24 -241 1 -119 -3 -218 -7 -221 -4 -3 -3 -11 3 -19 9 -9 10 -63 6 -186 -6 -161 -8 -175 -31 -209 -21 -32 -32 -39 -71 -45 -28 -4 -54 -3 -64 4 -9 5 -22 7 -28 3 -7 -4 -165 -7 -352 -6 l-339 2 -33 25 -33 26 -3 208 c-4 406 -2 629 8 632 6 2 10 12 10 23 0 39 49 46 290 45 124 -1 231 -5 238 -10z m1326 2 c40 -10 91 -52 81 -67 -3 -5 -1 -12 4 -16 7 -4 7 -15 0 -32 -5 -14 -6 -35 -3 -47 4 -11 6 -66 5 -121 -2 -55 -2 -111 -1 -125 0 -14 1 -123 1 -243 l1 -218 -26 -40 -26 -39 -78 -1 c-478 -6 -610 -7 -683 -2 -78 5 -89 8 -118 35 l-31 29 6 147 c4 81 7 156 6 167 0 11 -3 128 -5 259 -4 217 -3 243 13 269 10 16 29 35 42 41 29 16 753 19 812 4z m1049 -10 c16 -11 30 -33 36 -55 8 -33 17 -220 11 -248 -1 -5 -1 -50 1 -100 2 -91 1 -216 -5 -379 -2 -70 -6 -90 -19 -98 -10 -5 -17 -15 -17 -23 0 -33 -39 -36 -438 -39 -386 -3 -398 -2 -434 18 -47 26 -49 39 -46 276 0 96 0 256 -2 354 -2 178 -2 179 21 197 l24 19 -22 0 c-27 0 -27 2 -9 39 30 58 40 59 475 57 360 -1 399 -3 424 -18z m303 11 c7 -6 15 -6 18 -1 4 7 603 8 654 1 7 -1 25 -17 41 -34 l27 -31 -1 -407 c-1 -392 -2 -408 -22 -435 -28 -38 -65 -55 -96 -43 -13 5 -40 6 -58 2 -30 -6 -686 -7 -699 0 -3 1 -10 3 -16 3 -6 1 -22 15 -35 31 -24 30 -24 32 -18 190 3 88 4 201 1 250 -6 106 -5 93 -3 270 3 131 4 142 27 172 13 17 34 33 46 35 57 8 123 6 134 -3z m-3381 -66 c-5 -15 -4 -16 6 -5 17 16 29 15 29 -2 0 -8 6 -16 13 -19 9 -3 9 -7 0 -19 -10 -11 -10 -17 -1 -26 6 -6 8 -15 3 -19 -4 -5 -10 -2 -12 5 -3 6 -9 12 -15 12 -5 0 0 -13 11 -29 19 -27 19 -29 3 -47 -9 -11 -24 -28 -32 -38 -14 -18 -13 -18 9 -11 l24 7 -21 -23 c-16 -16 -20 -29 -15 -48 6 -23 4 -24 -10 -13 -13 11 -15 11 -11 -5 3 -10 -4 -28 -15 -40 -24 -26 -28 -41 -6 -23 9 7 19 10 22 6 4 -4 1 -11 -7 -17 -13 -8 -13 -10 0 -18 12 -8 11 -14 -10 -36 -19 -20 -21 -28 -11 -34 11 -7 11 -12 0 -30 -8 -11 -17 -21 -22 -21 -4 0 0 -11 9 -25 9 -14 21 -22 28 -18 6 3 3 -3 -7 -14 -12 -14 -15 -23 -7 -28 7 -4 3 -16 -10 -36 -12 -16 -18 -33 -15 -39 3 -6 0 -16 -7 -24 -7 -8 -21 -24 -31 -36 -18 -21 -18 -22 2 -15 12 3 21 2 21 -3 0 -6 -6 -12 -12 -15 -10 -3 -10 -7 1 -20 9 -11 10 -17 2 -17 -6 0 -11 5 -11 10 0 6 -4 10 -10 10 -16 0 -12 -19 10 -42 l20 -21 -36 -35 c-30 -29 -33 -36 -22 -49 11 -14 10 -15 -11 -8 -20 6 -23 4 -18 -9 6 -14 3 -16 -16 -11 -18 6 -20 5 -9 -6 18 -19 15 -34 -4 -18 -13 10 -17 10 -24 0 -5 -8 -16 -11 -30 -6 -17 6 -21 4 -14 -6 5 -9 -2 -8 -19 4 -15 9 -27 14 -27 10 0 -5 -9 -14 -20 -20 -16 -11 -18 -10 -14 2 8 19 -22 49 -41 41 -23 -8 -7 21 22 39 13 9 27 14 30 11 3 -3 25 6 49 20 24 14 44 22 44 18 0 -4 14 5 30 21 17 16 30 34 30 40 0 5 11 27 25 47 16 23 21 39 14 43 -7 5 -7 11 1 20 6 7 8 19 4 28 -3 9 3 24 14 35 15 15 17 23 9 31 -8 8 -8 14 1 23 8 8 8 15 1 24 -7 9 -5 18 8 33 19 23 27 78 12 87 -5 3 0 18 11 34 15 21 17 30 8 33 -10 4 -10 7 -1 18 10 10 10 16 0 27 -9 12 -9 16 1 19 6 3 12 20 12 38 0 19 5 37 11 41 8 4 8 9 0 17 -7 7 -7 15 1 24 11 14 19 58 19 100 -1 12 4 25 9 28 6 4 8 11 4 16 -3 5 0 16 6 24 17 20 24 19 15 -2z m7068 -113 l18 -50 134 0 135 0 0 -85 c0 -60 -4 -85 -12 -87 -7 0 -31 -2 -53 -2 -27 -1 -39 -5 -37 -14 5 -26 -19 -52 -88 -94 -38 -24 -70 -46 -70 -50 0 -5 63 -8 139 -8 77 0 142 -4 145 -9 3 -5 3 -23 0 -40 l-6 -31 -127 0 c-173 0 -171 1 -171 -69 0 -73 -25 -116 -77 -130 -44 -12 -150 -15 -156 -3 -2 4 -7 24 -11 45 l-7 37 64 0 c36 0 68 5 75 12 18 18 15 95 -4 102 -9 3 -83 6 -165 6 l-149 0 2 40 3 40 168 0 c160 0 167 1 167 20 0 11 11 26 25 35 90 54 96 49 -75 55 l-155 5 -3 28 c-3 25 -6 27 -53 27 l-50 0 3 83 3 82 148 3 c148 3 148 3 141 25 -17 50 -11 62 31 68 22 3 42 7 45 8 3 0 13 -21 23 -49z m-1291 -21 c44 -23 78 -66 103 -134 26 -69 26 -257 1 -333 -35 -103 -107 -156 -213 -157 -52 0 -68 4 -105 30 -57 40 -83 97 -97 212 -11 93 -4 198 19 259 50 131 173 183 292 123z m477 16 c43 -9 117 -83 131 -133 51 -180 25 -366 -62 -448 -41 -39 -62 -50 -115 -59 -92 -15 -185 45 -217 139 -8 23 -18 89 -21 147 -14 206 51 334 184 360 20 3 43 5 51 3 8 -1 30 -6 49 -9z m-996 -9 c84 -35 137 -153 137 -305 0 -129 -24 -206 -84 -268 -47 -50 -138 -72 -208 -51 -105 31 -153 140 -146 336 3 100 7 125 29 173 44 93 95 128 187 129 29 0 67 -6 85 -14z m-373 -35 c0 -29 -11 -55 -47 -107 -72 -108 -143 -275 -192 -454 -5 -22 -13 -25 -55 -28 -74 -5 -76 -3 -61 60 7 30 22 76 34 102 11 27 21 52 21 57 0 18 93 215 120 256 16 23 26 44 22 47 -3 3 -68 6 -144 6 l-138 0 0 50 0 50 220 0 220 0 0 -39z m-4905 -261 c3 -5 1 -10 -4 -10 -6 0 -11 5 -11 10 0 6 2 10 4 10 3 0 8 -4 11 -10z m-15 -80 c0 -5 -4 -10 -10 -10 -5 0 -10 5 -10 10 0 6 5 10 10 10 6 0 10 -4 10 -10z m-2044 -39 c-4 -5 -21 -20 -39 -32 l-32 -23 20 25 c25 31 47 50 53 45 2 -3 1 -9 -2 -15z m-119 -110 c-19 -23 -26 -27 -31 -16 -3 8 -1 14 3 12 5 -1 8 1 8 5 -2 8 36 38 42 33 2 -2 -8 -18 -22 -34z m1353 -2 c-10 -6 -11 -12 -5 -16 12 -9 14 -68 3 -79 -4 -4 -3 -13 3 -21 16 -19 -37 -65 -66 -57 -11 3 -16 2 -10 -3 6 -4 16 -16 23 -25 11 -14 11 -16 -6 -11 -11 2 -23 0 -27 -7 -5 -8 -11 -8 -22 2 -14 11 -15 10 -8 -12 6 -20 5 -23 -6 -13 -10 11 -18 8 -40 -13 -17 -16 -29 -22 -33 -15 -4 6 -12 11 -18 11 -7 0 -6 -5 1 -14 10 -12 5 -22 -28 -54 -49 -47 -52 -44 -10 9 42 53 24 49 -29 -6 -38 -39 -45 -43 -63 -32 -10 6 -19 15 -19 19 0 5 -5 8 -11 8 -8 0 -7 -5 1 -15 11 -13 10 -18 -6 -29 -16 -12 -23 -11 -49 7 -22 16 -27 17 -16 4 8 -10 12 -18 10 -20 -2 -1 -17 -13 -33 -27 -28 -24 -28 -24 -17 -2 6 12 17 22 24 22 7 0 3 8 -8 16 -19 14 -19 16 -3 28 10 7 15 16 11 20 -4 3 -17 -5 -30 -20 -19 -22 -25 -25 -38 -14 -9 7 -18 10 -22 7 -3 -4 2 -9 11 -13 9 -3 16 -14 16 -23 1 -14 3 -13 15 3 8 11 18 17 21 13 3 -3 -3 -16 -15 -28 -12 -13 -21 -17 -21 -11 0 7 -7 12 -15 12 -8 0 -15 -5 -15 -12 0 -6 -7 -5 -18 5 -11 10 -22 13 -28 8 -5 -6 -17 -4 -28 5 -20 14 -20 14 -1 28 11 8 24 11 30 8 5 -4 2 -8 -8 -10 -9 -2 -15 -8 -11 -13 3 -5 24 7 46 27 32 28 42 33 49 23 8 -11 13 -9 28 9 21 25 37 28 43 10 3 -8 19 2 43 24 28 27 42 34 48 25 7 -9 10 -9 14 1 2 6 9 12 15 12 5 0 18 10 28 23 14 16 22 19 30 11 13 -13 40 8 177 145 52 51 97 90 101 87 3 -4 0 -11 -8 -17z m-555 -25 c19 -15 19 -15 -4 -10 -13 2 -33 -1 -45 -9 -25 -15 -124 -26 -132 -13 -3 4 -11 5 -17 1 -7 -4 -24 -8 -39 -9 -23 -1 -28 3 -28 21 0 28 8 30 145 33 80 2 105 -1 120 -14z m845 -144 c26 -26 25 -32 -6 -59 -21 -19 -28 -20 -41 -9 -13 10 -17 10 -20 1 -3 -7 -10 -13 -16 -13 -8 0 -7 4 1 12 19 19 14 30 -10 23 -18 -5 -20 -4 -8 4 13 9 13 13 1 33 -13 21 -13 22 3 9 15 -12 19 -12 34 2 22 22 38 21 62 -3z m20 -70 c0 -5 -4 -10 -10 -10 -5 0 -10 5 -10 10 0 6 5 10 10 10 6 0 10 -4 10 -10z m-460 -48 c0 -4 -9 -13 -20 -20 -23 -14 -26 -8 -7 13 13 16 27 19 27 7z m-1010 -22 c0 -5 -2 -10 -4 -10 -3 0 -8 5 -11 10 -3 6 -1 10 4 10 6 0 11 -4 11 -10z m69 -16 c19 -14 25 -14 32 -3 6 11 11 11 20 2 6 -6 18 -9 26 -6 7 3 22 -2 32 -11 11 -10 25 -14 36 -10 10 4 20 1 25 -6 7 -11 11 -11 24 -1 23 19 20 -3 -4 -24 -11 -10 -17 -22 -14 -26 3 -5 20 8 39 28 27 29 36 34 47 25 11 -8 17 -9 25 -1 8 8 18 5 34 -10 13 -11 28 -21 33 -21 6 0 2 7 -8 15 -11 8 -17 18 -13 21 4 4 14 1 23 -6 13 -12 17 -11 24 1 7 11 12 11 21 2 9 -9 16 -10 26 -1 17 14 31 2 16 -13 -8 -8 -6 -17 8 -32 27 -29 24 -45 -4 -19 -25 23 -47 29 -47 12 0 -5 7 -10 16 -10 8 0 12 -5 9 -10 -5 -8 -12 -7 -22 1 -12 10 -16 10 -23 -1 -7 -11 -14 -9 -34 13 -25 27 -49 20 -26 -8 9 -11 9 -15 1 -15 -6 0 -11 5 -11 10 0 14 -28 12 -33 -2 -2 -7 -8 -9 -13 -5 -5 5 -1 13 9 18 9 6 15 15 11 20 -4 6 -13 4 -25 -7 -17 -16 -19 -16 -19 -1 0 22 -9 21 -36 -4 -18 -17 -26 -19 -43 -10 -25 14 -28 31 -5 31 8 0 12 5 9 10 -4 6 -18 2 -35 -10 l-29 -21 -21 21 c-11 11 -25 18 -30 15 -6 -3 -7 1 -4 9 3 9 2 16 -4 16 -6 0 -12 -6 -14 -12 -3 -8 -17 -1 -37 20 -35 34 -31 43 8 16z m516 -14 c3 -5 1 -10 -4 -10 -6 0 -11 5 -11 10 0 6 2 10 4 10 3 0 8 -4 11 -10z m3980 -690 c7 -34 -2 -73 -16 -65 -12 8 -12 95 0 95 5 0 12 -13 16 -30z m-3301 4 c3 -8 3 -27 0 -41 -8 -31 -24 -12 -24 30 0 29 14 36 24 11z m6586 -26 c0 -32 -3 -39 -10 -28 -13 20 -13 70 0 70 6 0 10 -19 10 -42z m-6590 -168 c0 -22 -4 -40 -8 -40 -5 0 -8 17 -6 38 3 45 3 42 9 42 3 0 5 -18 5 -40z m3304 12 c-1 -7 -2 -23 -2 -37 -3 -42 -22 -28 -22 16 0 28 4 39 13 37 6 -3 12 -10 11 -16z m3286 -28 c0 -21 -4 -33 -10 -29 -17 10 -11 65 7 65 2 0 3 -16 3 -36z m-3284 -149 c8 -31 -3 -78 -16 -70 -13 8 -13 95 0 95 5 0 12 -11 16 -25z m-3306 -25 c0 -22 -4 -40 -10 -40 -5 0 -10 18 -10 40 0 22 5 40 10 40 6 0 10 -18 10 -40z m6600 -6 c0 -19 -4 -34 -9 -34 -13 0 -18 19 -13 51 6 39 22 26 22 -17z m-3292 -205 c88 -10 96 -19 89 -96 l-6 -63 27 6 c15 3 59 15 99 25 40 11 84 17 100 14 15 -4 38 -8 49 -11 12 -2 27 -17 34 -33 19 -46 -10 -109 -74 -163 -28 -23 -109 -99 -179 -168 -70 -69 -132 -126 -138 -128 -5 -2 -9 -20 -9 -39 0 -34 1 -35 22 -21 12 8 26 29 30 46 10 39 40 57 67 42 29 -15 67 -12 109 9 20 10 80 35 132 56 150 59 248 51 333 -30 15 -15 24 -31 21 -38 -27 -46 -59 -78 -157 -157 -62 -50 -120 -97 -129 -105 -10 -8 -18 -28 -18 -44 0 -63 -14 -79 -92 -102 -40 -12 -78 -25 -83 -30 -6 -4 -37 -22 -70 -39 -69 -36 -155 -115 -155 -143 0 -25 -18 -57 -33 -57 -7 -1 -38 -53 -70 -118 -127 -256 -198 -348 -246 -323 -58 32 -37 138 41 204 40 33 60 63 110 166 77 156 75 152 44 118 -20 -21 -31 -26 -51 -21 -14 3 -30 15 -36 26 -6 10 -14 96 -19 191 -5 109 -14 191 -25 225 -22 71 -17 93 22 106 36 12 234 199 231 217 -2 6 6 13 17 15 20 3 252 230 244 239 -3 2 -29 2 -57 -2 -71 -8 -176 -76 -180 -115 -3 -29 -11 -35 -28 -18 -6 6 -23 3 -47 -10 -43 -23 -64 -17 -87 24 -12 24 -11 29 18 64 90 104 109 133 127 185 16 47 17 61 7 77 -13 22 -16 82 -4 94 4 4 8 -11 10 -33 2 -23 6 -41 10 -42z m3428 44 c34 -19 44 -32 53 -68 6 -24 11 -58 11 -74 0 -17 3 -31 6 -31 3 0 32 16 65 36 65 41 137 55 157 32 18 -23 17 -67 -5 -163 -30 -126 -53 -263 -53 -308 0 -21 12 -74 27 -118 22 -64 37 -91 79 -134 36 -39 59 -55 77 -55 17 0 28 -7 32 -20 4 -11 16 -27 28 -35 42 -27 179 -65 258 -71 77 -7 79 -6 79 15 0 12 -7 35 -15 51 -15 28 -25 34 -52 31 -21 -3 -24 18 -4 29 20 10 19 12 -9 73 -30 62 -38 97 -21 97 4 0 47 -39 95 -86 81 -80 91 -87 129 -88 51 -1 65 -20 20 -24 -18 -2 -33 -5 -33 -8 0 -2 14 -32 31 -66 l31 -61 -23 -44 c-15 -28 -31 -46 -47 -50 -51 -12 -244 14 -332 46 -46 17 -93 31 -103 31 -23 0 -113 57 -176 112 -34 30 -52 38 -82 38 -28 0 -39 4 -39 15 0 8 7 15 15 15 19 0 19 10 0 46 -8 16 -15 37 -15 48 0 14 -5 17 -22 11 -55 -16 -71 -16 -115 0 -45 17 -116 25 -127 14 -13 -13 -24 -104 -14 -122 7 -14 6 -22 -5 -30 -17 -13 -33 -57 -21 -57 5 0 34 10 66 22 40 16 58 28 60 43 4 28 43 30 114 7 69 -22 77 -41 42 -95 -18 -27 -36 -39 -78 -53 -105 -33 -170 -59 -170 -66 0 -11 51 -10 107 3 41 10 54 9 81 -5 73 -38 14 -126 -100 -150 -25 -6 -28 -11 -28 -45 0 -61 7 -72 38 -60 53 20 179 39 262 39 136 0 191 -24 162 -71 -7 -10 -12 -25 -12 -34 0 -31 -40 -38 -169 -32 -123 7 -245 -5 -257 -24 -3 -5 0 -45 6 -90 21 -150 11 -368 -21 -491 -13 -49 -55 -98 -83 -98 -14 0 -27 -9 -34 -22 l-11 -23 -6 22 c-6 18 -19 24 -78 33 -40 7 -97 18 -127 25 -30 7 -75 16 -100 20 -50 8 -80 21 -80 35 0 19 109 41 230 47 148 7 164 12 155 55 -5 23 -2 34 14 49 19 18 21 31 21 145 0 121 -1 125 -20 119 -18 -6 -20 -2 -20 40 0 31 5 47 15 51 14 6 22 34 9 34 -3 0 -67 -31 -142 -69 -169 -85 -210 -103 -292 -131 -85 -28 -218 -37 -244 -18 -23 18 -24 59 -1 94 18 27 86 63 121 64 26 0 49 -24 38 -41 -22 -36 207 59 465 193 42 22 51 108 12 108 -9 0 -32 -11 -51 -25 -38 -28 -62 -32 -79 -11 -10 11 -17 11 -49 0 -20 -7 -44 -13 -52 -14 -8 0 -27 -7 -42 -14 -50 -26 -90 -24 -118 6 -22 24 -19 51 9 80 9 10 56 26 111 37 127 26 234 69 238 97 6 40 -19 48 -119 35 -50 -6 -109 -18 -132 -26 -84 -29 -113 -15 -162 85 -25 50 -63 88 -101 100 -28 9 -44 8 -93 -11 -57 -20 -62 -21 -86 -5 -29 19 -50 58 -42 78 2 7 27 24 53 38 27 14 71 44 99 67 225 188 223 185 232 294 7 83 3 85 -83 33 -152 -93 -262 -117 -309 -69 -50 49 -22 85 65 85 28 0 77 19 177 70 189 95 181 87 191 194 l8 88 -25 11 c-100 42 -71 147 40 147 72 0 83 -22 85 -164 l2 -111 61 -5 c66 -5 81 -17 73 -55 -6 -33 -46 -67 -100 -86 -41 -14 -48 -20 -56 -52 -13 -52 -1 -56 42 -15 44 42 81 63 92 51 5 -4 10 -19 12 -32 3 -24 5 -23 66 28 34 28 62 60 62 70 0 14 6 17 28 13 21 -3 30 2 39 20 46 90 54 157 28 209 -15 27 -19 29 -54 24 -28 -4 -43 -1 -55 10 -20 20 -20 28 -1 65 24 46 95 47 171 3z m-6731 17 c4 -6 13 -7 23 -1 23 12 55 -2 75 -33 20 -30 22 -67 5 -113 -6 -18 -9 -35 -5 -39 3 -3 25 3 49 14 98 48 212 60 270 31 57 -30 63 -85 18 -164 -49 -86 -243 -263 -387 -354 -29 -18 -54 -40 -55 -50 -1 -9 -2 -31 -2 -50 -1 -40 -26 -56 -26 -17 0 32 -12 39 -37 21 -26 -18 -43 -86 -43 -173 0 -60 3 -71 25 -92 23 -22 25 -30 25 -117 0 -51 2 -93 5 -93 3 0 27 11 54 24 50 26 65 50 105 169 18 53 21 133 6 142 -14 9 -108 -46 -113 -66 -3 -12 -13 -15 -36 -11 -36 5 -56 39 -45 76 7 22 43 66 55 66 3 0 33 16 65 35 52 31 58 39 56 64 -5 42 18 55 86 47 38 -4 76 -1 112 9 117 32 276 12 340 -41 44 -37 39 -64 -20 -126 -28 -29 -46 -54 -40 -56 25 -9 7 -30 -30 -35 -29 -4 -58 -21 -113 -66 -41 -34 -78 -61 -83 -61 -15 -1 -67 -50 -60 -57 3 -4 59 4 124 16 64 13 136 26 160 30 23 3 43 10 43 14 0 4 -20 22 -43 40 -44 34 -61 67 -34 67 8 0 41 -11 73 -25 72 -31 199 -65 279 -75 62 -8 125 -31 157 -58 24 -21 21 -56 -6 -88 -27 -31 -67 -35 -114 -11 -16 9 -53 20 -83 25 -67 13 -263 9 -305 -6 -16 -5 -86 -20 -155 -32 -211 -36 -215 -39 -287 -165 -69 -120 -103 -201 -103 -242 0 -47 -8 -59 -25 -36 -11 15 -14 14 -28 -14 -20 -38 -82 -93 -106 -93 -10 0 -25 8 -35 19 -16 17 -15 21 18 68 19 28 42 66 50 84 9 19 20 41 25 49 5 8 22 42 36 75 14 33 33 73 41 88 9 16 13 31 10 34 -7 7 -176 -71 -225 -104 -18 -13 -59 -31 -90 -40 -31 -10 -78 -29 -106 -43 -49 -25 -50 -26 -49 -70 0 -25 4 -70 8 -101 8 -50 6 -58 -17 -84 -23 -28 -26 -29 -51 -15 -27 14 -117 122 -215 257 -29 39 -58 74 -66 77 -7 2 -29 0 -48 -6 -49 -15 -101 -3 -122 28 -9 14 -14 32 -11 39 2 7 31 33 62 56 32 24 123 106 202 183 l144 141 9 115 c4 63 11 137 13 163 l5 49 -27 -7 c-15 -3 -76 -29 -137 -58 -94 -44 -120 -52 -182 -55 -69 -4 -74 -3 -103 26 -47 47 -37 80 33 110 39 17 60 15 89 -8 l25 -19 150 73 c178 87 178 87 178 241 -1 83 -4 108 -24 149 -43 91 -9 145 83 133 65 -9 71 -21 73 -160 2 -142 4 -146 100 -166 32 -7 67 -19 78 -27 19 -14 19 -15 -2 -52 -18 -31 -34 -42 -98 -68 -108 -43 -112 -49 -124 -174 -5 -57 -8 -107 -5 -109 2 -3 31 22 64 54 45 45 63 56 71 48 9 -9 8 -24 -5 -62 -20 -61 -20 -58 4 -64 33 -8 23 -27 -15 -27 -30 0 -40 -7 -76 -52 -23 -29 -48 -62 -55 -73 -16 -24 -30 -251 -20 -319 7 -43 10 -47 29 -43 26 6 197 71 245 92 l32 15 0 82 c-1 46 -7 134 -14 197 -18 172 8 253 118 361 58 57 66 69 66 102 0 42 14 51 23 16 l6 -22 23 20 c13 11 61 53 107 93 91 79 184 176 194 203 9 24 -9 26 -96 12 -74 -13 -93 -22 -200 -92 -33 -22 -37 -29 -32 -53 7 -32 -14 -52 -22 -20 -6 25 -11 25 -37 6 -26 -19 -45 -19 -68 2 -30 27 -22 66 25 121 43 51 107 162 107 187 0 7 -7 16 -15 19 -12 4 -14 16 -11 43 3 21 5 39 5 41 2 6 21 1 26 -8z m2865 -180 c20 -20 26 -71 20 -177 -1 -23 1 -52 5 -63 8 -24 60 -50 99 -50 16 0 32 -9 42 -24 15 -23 14 -27 -8 -56 -26 -36 -66 -62 -120 -79 -31 -10 -39 -19 -48 -49 -13 -50 -30 -175 -24 -181 2 -2 17 7 32 21 39 36 81 62 90 54 3 -4 -1 -27 -9 -51 -16 -44 -16 -45 7 -60 33 -22 30 -35 -9 -35 -25 0 -41 -8 -63 -32 -39 -43 -72 -92 -84 -123 -23 -60 -31 -277 -26 -664 0 -35 -5 -48 -27 -67 -24 -20 -31 -22 -53 -12 -45 21 -85 96 -130 242 -50 165 -58 176 -107 152 -19 -9 -45 -16 -56 -16 -23 0 -71 44 -71 66 0 20 47 71 114 121 33 26 105 90 160 143 l98 96 9 65 c4 35 13 106 20 156 7 51 10 96 6 99 -3 3 -46 -8 -94 -26 -115 -42 -268 -73 -313 -65 -65 12 -90 58 -50 92 13 11 39 17 82 18 76 2 226 44 324 90 71 34 71 34 78 81 3 26 6 109 6 185 l0 138 28 15 c36 20 48 20 72 -4z m3734 -14 c7 -35 0 -66 -15 -66 -5 0 -9 23 -9 50 0 57 15 67 24 16z m-2721 -713 c19 -11 3 -23 -32 -23 -42 0 -63 16 -40 31 12 7 52 3 72 -8z m-5293 -8 c0 -16 -64 -22 -74 -6 -9 14 5 21 41 21 23 0 33 -5 33 -15z m185 0 c0 -5 -19 -11 -42 -13 -34 -3 -43 0 -43 13 0 13 9 16 43 13 23 -2 42 -7 42 -13z m183 -2 c2 -9 -10 -13 -42 -13 -25 0 -46 4 -46 9 0 22 81 25 88 4z m182 2 c0 -11 -12 -15 -45 -15 -42 0 -54 7 -38 23 3 4 24 7 45 7 27 0 38 -4 38 -15z m178 -2 c2 -9 -9 -13 -37 -13 -39 0 -50 8 -34 24 11 11 66 2 71 -11z m1442 2 c0 -11 -12 -15 -44 -15 -43 0 -63 10 -49 24 3 3 26 6 50 6 32 0 43 -4 43 -15z m175 0 c0 -12 -50 -19 -71 -11 -9 3 -12 11 -9 16 8 14 80 9 80 -5z m183 -2 c2 -9 -9 -13 -37 -13 -39 0 -57 10 -44 24 12 11 76 2 81 -11z m170 0 c2 -9 -9 -13 -37 -13 -39 0 -57 10 -44 24 12 11 76 2 81 -11z m176 11 c27 -10 7 -24 -35 -24 -37 0 -48 8 -32 23 8 9 46 9 67 1z m431 -9 c0 -12 -50 -19 -73 -10 -14 5 -14 7 -2 16 19 12 75 7 75 -6z m175 0 c0 -15 -35 -20 -64 -9 -25 10 -8 24 30 24 24 0 34 -5 34 -15z m180 0 c0 -16 -55 -22 -64 -6 -8 13 5 21 36 21 18 0 28 -5 28 -15z m188 3 c-3 -8 -21 -13 -43 -13 -22 0 -40 5 -42 13 -3 8 9 12 42 12 33 0 45 -4 43 -12z m182 -3 c0 -11 -11 -15 -39 -15 -38 0 -57 10 -44 24 3 3 24 6 45 6 27 0 38 -4 38 -15z m1434 9 c27 -10 7 -24 -35 -24 -37 0 -48 8 -32 23 8 9 46 9 67 1z m170 0 c9 -3 13 -10 10 -15 -7 -12 -84 -12 -84 0 0 17 45 26 74 15z m201 -9 c0 -11 -59 -19 -82 -11 -8 3 -11 11 -8 16 8 14 90 9 90 -5z m178 0 c-4 -15 -86 -12 -91 3 -3 10 8 12 44 10 27 -2 48 -7 47 -13z m172 0 c0 -12 -50 -19 -71 -11 -9 3 -12 11 -9 16 8 14 80 9 80 -5z m433 -2 c2 -9 -7 -13 -26 -13 -37 0 -62 9 -62 22 0 14 83 5 88 -9z m190 -1 c3 -10 -8 -12 -44 -10 -28 2 -49 8 -52 16 -3 10 8 12 44 10 28 -2 49 -8 52 -16z m177 3 c0 -5 -19 -11 -42 -13 -34 -3 -43 0 -43 13 0 13 9 16 43 13 23 -2 42 -7 42 -13z m170 6 c3 -5 -4 -13 -16 -16 -26 -9 -72 2 -64 15 8 13 72 13 80 1z m1620 -6 c0 -5 -19 -11 -42 -13 -40 -3 -53 5 -36 22 11 10 78 3 78 -9z m540 0 c0 -12 -50 -19 -71 -11 -9 3 -12 11 -9 16 8 14 80 9 80 -5z m183 -2 c2 -9 -10 -13 -42 -13 -35 0 -46 4 -46 16 0 12 9 14 42 12 23 -2 43 -9 46 -15z m-3138 -228 c0 -63 -4 -115 -9 -115 -9 0 -21 206 -13 223 2 4 7 7 13 7 5 0 9 -50 9 -115z m-4960 44 c0 -21 -4 -39 -10 -39 -5 0 -10 21 -10 46 0 27 4 43 10 39 6 -3 10 -24 10 -46z m4398 -84 c1 -22 11 -74 22 -115 10 -41 24 -113 30 -160 24 -199 8 -246 -103 -303 -108 -55 -258 -87 -403 -87 -150 0 -295 23 -350 55 -54 32 -108 93 -125 141 -15 44 -17 207 -4 369 9 123 16 137 58 133 l32 -3 5 -200 c5 -188 6 -203 30 -249 32 -63 48 -72 145 -86 44 -6 110 -15 147 -20 117 -17 347 28 408 79 30 25 31 29 40 146 5 66 10 162 10 213 0 99 11 135 38 130 12 -2 18 -15 20 -43z m-1088 -270 c0 -25 -4 -45 -10 -45 -5 0 -10 20 -10 45 0 25 5 45 10 45 6 0 10 -20 10 -45z m-2695 -18 c136 -68 225 -210 241 -380 6 -68 5 -74 -20 -104 -40 -47 -62 -48 -92 -4 -18 27 -27 60 -34 119 -9 80 -34 146 -64 171 -9 8 -16 19 -16 25 0 7 -23 34 -51 61 -121 119 -101 182 36 112z m2695 -167 c0 -22 -4 -40 -10 -40 -12 0 -24 45 -16 65 11 29 26 15 26 -25z m-3310 -175 c0 -37 -14 -54 -24 -29 -8 21 -8 59 0 67 13 13 24 -5 24 -38z m3310 1 c0 -19 -4 -37 -9 -40 -11 -7 -23 37 -15 58 11 28 24 17 24 -18z m3308 -9 c2 -28 -1 -37 -12 -37 -12 0 -16 11 -16 41 0 52 24 48 28 -4z m-3308 -172 c0 -25 -4 -45 -9 -45 -10 0 -23 69 -15 82 13 21 24 4 24 -37z m-3310 -5 c0 -22 -4 -40 -10 -40 -5 0 -10 18 -10 40 0 22 5 40 10 40 6 0 10 -18 10 -40z m0 -181 c0 -21 -4 -39 -9 -39 -10 0 -23 69 -15 82 11 18 24 -5 24 -43z m3310 10 c0 -28 -4 -39 -12 -36 -7 2 -13 9 -12 15 1 7 2 23 3 37 2 42 21 28 21 -16z m-3312 -187 c2 -23 -1 -42 -6 -42 -13 0 -22 25 -22 62 0 46 24 29 28 -20z m3312 3 c0 -25 -4 -45 -10 -45 -11 0 -14 73 -3 83 11 12 13 8 13 -38z m3310 -1 c0 -24 -4 -34 -12 -32 -24 8 -22 68 2 68 5 0 10 -16 10 -36z m-6620 -894 c0 -29 -4 -40 -15 -40 -10 0 -15 10 -15 33 0 19 3 37 7 40 15 16 23 5 23 -33z m-2 -182 c-2 -24 -7 -43 -13 -43 -5 0 -11 19 -13 43 -3 33 0 42 13 42 13 0 16 -9 13 -42z m2 -172 c0 -19 -4 -38 -10 -41 -12 -7 -24 39 -16 60 10 27 26 16 26 -19z m0 -192 c0 -24 -4 -34 -12 -32 -15 5 -22 42 -14 64 10 25 26 5 26 -32z m-61 -69 c15 -14 14 -19 -5 -53 -26 -44 -40 -52 -164 -87 -52 -16 -128 -44 -168 -64 l-74 -36 -16 21 c-11 12 -39 25 -74 32 -102 20 -175 87 -132 119 15 11 40 13 109 8 79 -6 97 -4 145 15 48 19 175 50 265 63 47 7 97 -1 114 -18z m333 -36 c58 -47 63 -76 63 -389 l0 -275 30 0 c25 0 44 17 131 118 56 65 111 136 123 158 21 37 21 39 4 46 -25 9 -33 23 -33 59 0 89 134 100 170 14 24 -58 -3 -133 -95 -259 -42 -58 -194 -210 -235 -236 -47 -29 -95 -33 -109 -7 -8 15 -12 12 -26 -21 -23 -54 -23 -108 0 -121 10 -6 39 -27 64 -46 25 -19 69 -48 98 -66 53 -31 78 -51 180 -138 107 -90 189 -135 288 -156 75 -16 191 -58 230 -83 107 -70 116 -77 113 -100 -4 -31 -59 -34 -173 -8 -49 11 -108 22 -130 26 -43 7 -145 44 -210 75 -64 32 -184 121 -296 222 -97 87 -203 168 -222 168 -4 0 -15 -17 -24 -37 -27 -59 -106 -174 -173 -251 -75 -87 -141 -131 -209 -139 -59 -7 -57 2 -34 -138 16 -100 16 -104 -3 -136 -26 -44 -45 -47 -88 -14 -75 57 -125 172 -167 379 -22 109 -22 117 -6 133 24 25 38 6 67 -92 26 -86 48 -140 57 -132 7 8 -9 447 -17 447 -4 0 -50 -48 -101 -107 -195 -224 -298 -321 -387 -367 -33 -17 -34 -17 -68 9 -18 14 -37 37 -40 50 -8 31 24 84 75 124 33 26 43 29 69 22 24 -7 34 -5 46 8 13 15 14 23 5 51 -14 39 -6 444 9 463 5 7 14 46 21 87 19 123 76 287 113 328 41 43 67 23 43 -34 -26 -63 -25 -64 74 -64 101 0 125 -12 136 -67 6 -28 2 -38 -23 -63 -36 -35 -50 -37 -85 -10 -38 30 -102 18 -128 -24 -20 -33 -22 -93 -3 -89 7 1 55 3 107 4 106 2 122 -4 132 -53 14 -63 27 -7 36 153 12 236 11 269 -4 269 -8 0 -22 -9 -32 -20 -10 -11 -31 -20 -47 -20 -24 0 -28 4 -28 28 0 41 54 118 92 131 52 18 76 13 119 -26 l41 -37 -7 -173 -7 -173 25 0 c40 0 41 -16 8 -84 -17 -35 -31 -66 -31 -70 0 -3 14 -6 30 -6 20 0 30 -5 30 -15 0 -11 -12 -15 -45 -15 l-45 0 0 -274 c0 -225 2 -275 14 -279 22 -9 92 31 145 83 48 47 48 48 43 99 -4 43 -2 51 12 51 10 0 17 -7 15 -17 -4 -44 2 -47 26 -18 13 17 24 34 25 38 0 5 14 39 30 77 17 38 30 83 30 100 l0 32 -29 -31 c-16 -17 -38 -31 -49 -31 -23 0 -46 -25 -37 -40 3 -5 2 -10 -3 -10 -14 0 -22 26 -22 68 0 20 -6 69 -14 107 -8 39 -17 143 -20 231 l-7 161 26 17 c14 9 25 23 25 31 0 8 5 15 10 15 6 0 10 -11 10 -24 0 -13 6 -29 14 -35 16 -13 21 -44 36 -199 14 -153 53 -228 94 -186 13 12 13 19 4 34 -10 16 -9 22 5 32 47 35 85 599 44 662 -9 13 -27 26 -39 28 -16 2 -24 11 -26 29 -3 22 4 30 40 48 55 27 56 27 100 -10z m-272 -69 c0 -37 -11 -52 -24 -31 -8 13 5 71 15 71 5 0 9 -18 9 -40z m0 -181 c0 -28 -4 -39 -15 -39 -11 0 -14 9 -11 33 2 17 4 38 5 45 3 31 21 -3 21 -39z m-1395 -524 c0 -5 -19 -11 -42 -13 -40 -3 -53 5 -36 22 11 10 78 3 78 -9z m175 0 c0 -11 -11 -15 -40 -15 -38 0 -49 8 -33 23 3 4 21 7 40 7 23 0 33 -5 33 -15z m178 -2 c2 -9 -9 -13 -37 -13 -39 0 -50 8 -34 24 11 11 66 2 71 -11z m190 0 c2 -9 -10 -13 -42 -13 -35 0 -46 4 -46 16 0 12 9 14 42 12 23 -2 43 -9 46 -15z m1432 2 c0 -11 -11 -15 -40 -15 -29 0 -40 4 -40 15 0 11 11 15 40 15 29 0 40 -4 40 -15z m174 9 c9 -3 13 -10 10 -15 -7 -12 -84 -12 -84 0 0 17 45 26 74 15z m176 -4 c12 -8 12 -10 -3 -16 -9 -3 -29 -3 -44 1 -21 5 -24 8 -12 16 18 11 40 11 59 -1z m194 1 c7 -11 -17 -21 -49 -21 -25 0 -39 12 -28 24 10 9 71 7 77 -3z m174 -8 c2 -9 -9 -13 -37 -13 -30 0 -41 4 -41 16 0 11 9 14 37 12 20 -2 38 -9 41 -15z m176 11 c27 -10 7 -24 -34 -24 -60 0 -63 27 -3 29 12 1 28 -2 37 -5z m-1480 -726 c8 -37 4 -58 -11 -58 -9 0 -13 13 -13 40 0 43 17 55 24 18z m0 -220 c-3 -10 -10 -18 -15 -18 -11 0 -12 73 -2 84 10 10 24 -45 17 -66z m0 -150 c3 -15 2 -29 -3 -32 -11 -7 -21 17 -21 52 0 31 15 19 24 -20z m-4 -183 c0 -53 -16 -61 -22 -11 -4 39 0 56 13 56 5 0 9 -20 9 -45z m0 -181 c0 -32 -4 -44 -12 -41 -12 3 -18 59 -10 80 10 23 22 1 22 -39z"/>
<path d="M1177 8976 c-16 -13 -26 -74 -14 -92 8 -13 55 -13 75 0 10 6 10 11 1 22 -9 11 -9 18 -1 26 7 7 12 21 12 33 0 15 -7 20 -28 21 -16 1 -36 -4 -45 -10z"/>
<path d="M1406 8971 c-22 -26 -28 -77 -10 -92 11 -9 18 -9 26 -1 8 8 16 8 23 2 18 -15 45 21 48 65 2 38 1 39 -35 40 -24 1 -43 -4 -52 -14z"/>
<path d="M1398 8833 c-29 -5 -35 -17 -36 -80 -1 -18 2 -33 6 -34 74 -8 92 -1 92 37 0 14 5 33 12 44 7 10 10 21 8 24 -9 8 -55 13 -82 9z"/>
<path d="M1139 8808 c-1 -13 -2 -30 -3 -38 -1 -8 -5 -21 -10 -28 -11 -18 -3 -24 43 -28 40 -3 56 11 45 40 -3 8 0 17 6 21 9 6 9 9 -1 15 -10 7 -10 11 0 24 12 14 8 16 -33 16 -41 0 -46 -3 -47 -22z"/>
<path d="M1394 8679 c-3 -6 -12 -8 -20 -5 -8 3 -16 0 -18 -7 -2 -6 -7 -21 -11 -32 -4 -11 -9 -29 -11 -40 -11 -58 -10 -59 27 -61 19 -1 41 1 48 5 13 8 30 69 31 106 0 24 -36 50 -46 34z"/>
<path d="M1420 8389 c0 -5 5 -7 10 -4 6 3 10 8 10 11 0 2 -4 4 -10 4 -5 0 -10 -5 -10 -11z"/>
<path d="M2104 8922 c-8 -18 -30 -114 -39 -169 l-5 -33 75 0 c81 0 95 10 95 64 0 14 4 27 10 31 5 3 7 12 3 20 -3 9 0 22 6 29 9 10 9 16 1 21 -8 5 -8 11 1 21 18 22 5 28 -70 31 -57 2 -71 -1 -77 -15z"/>
<path d="M2419 8909 c-19 -20 -29 -41 -28 -58 2 -29 -10 -111 -17 -123 -3 -5 32 -8 77 -8 92 0 108 10 109 67 0 17 5 35 10 38 8 5 7 11 -1 21 -9 11 -8 15 5 20 19 7 21 45 4 62 -7 7 -38 12 -71 12 -53 0 -62 -3 -88 -31z"/>
<path d="M2063 8682 c-13 -8 -32 -80 -37 -135 -2 -15 -6 -30 -9 -34 -4 -3 -7 -12 -7 -20 0 -10 21 -13 86 -13 56 0 83 3 79 10 -4 6 -2 17 4 24 6 7 12 37 14 65 2 29 8 56 15 60 6 4 9 17 5 29 -5 20 -12 22 -72 22 -36 0 -72 -4 -78 -8z"/>
<path d="M2373 8679 c-6 -6 -9 -17 -6 -24 2 -8 0 -23 -7 -34 -6 -12 -11 -41 -12 -66 0 -25 -4 -48 -9 -51 -26 -16 0 -24 74 -24 96 0 105 8 108 90 1 28 6 53 11 56 4 3 8 18 8 35 l0 29 -78 0 c-44 0 -83 -5 -89 -11z"/>
<path d="M3258 8729 c-14 -8 -18 -23 -18 -69 l0 -60 -45 0 c-30 0 -47 -5 -51 -14 -10 -25 14 -53 50 -60 44 -8 47 -14 40 -70 l-7 -46 -44 0 -44 0 3 -37 c3 -37 4 -38 43 -38 47 1 56 -8 48 -50 -9 -43 -61 -150 -84 -171 -24 -21 -24 -43 0 -71 37 -44 66 -21 111 89 13 31 29 59 37 62 13 5 17 2 52 -44 17 -22 22 -23 45 -12 39 17 32 44 -29 109 -30 32 -55 63 -55 69 0 16 24 24 71 24 38 0 39 1 39 34 l0 35 -52 3 -53 3 0 48 c0 54 4 58 55 67 31 5 35 9 35 35 0 25 -4 30 -23 28 -46 -5 -62 13 -62 70 0 69 -20 91 -62 66z"/>
<path d="M3438 8673 c-1 -15 -1 -37 -1 -48 1 -11 2 -92 3 -180 2 -188 4 -205 34 -205 46 0 48 6 43 187 -3 94 -2 176 2 182 11 17 148 20 187 4 l31 -12 0 -160 c-1 -166 5 -191 43 -191 22 0 42 23 40 47 -1 10 -3 95 -5 188 -1 94 -3 180 -4 191 -1 21 -5 21 -186 23 l-185 2 -2 -28z"/>
<path d="M3591 8556 c-6 -17 -10 -78 -10 -136 0 -114 -4 -128 -71 -227 -19 -29 -39 -53 -45 -53 -5 -1 -26 -14 -45 -30 -19 -17 -40 -30 -47 -30 -7 0 -13 -4 -13 -8 0 -14 45 -52 62 -52 9 0 57 40 107 88 l91 88 0 -61 c0 -83 22 -105 104 -105 77 0 109 20 124 76 16 60 15 91 -4 98 -32 12 -43 5 -54 -34 -11 -40 -41 -70 -71 -70 -25 0 -29 22 -22 104 6 72 5 74 -21 91 -20 14 -25 22 -19 39 4 11 7 69 7 127 l1 106 -32 10 c-31 9 -33 8 -42 -21z"/>
<path d="M4327 8724 c-4 -4 -7 -19 -7 -34 l0 -27 -86 -2 c-48 -1 -90 -4 -94 -6 -4 -2 -5 -17 -2 -33 3 -26 9 -31 42 -36 21 -3 59 -3 84 0 45 7 46 6 57 -25 7 -19 15 -28 22 -24 18 11 36 12 43 2 11 -18 24 -8 24 19 l0 28 81 -1 c76 0 82 -2 90 -23 7 -20 15 -23 46 -20 31 2 39 7 41 25 3 19 9 22 35 21 18 -1 60 -1 95 0 l62 2 0 35 c0 39 5 37 -105 39 l-80 1 -5 30 c-5 27 -9 30 -47 33 -39 3 -42 1 -48 -27 -7 -33 -24 -42 -81 -41 -86 1 -83 0 -86 34 -3 28 -7 31 -38 34 -20 2 -39 0 -43 -4z"/>
<path d="M4212 8518 c-15 -15 -16 -48 -2 -48 6 0 18 -8 29 -17 55 -52 84 -77 77 -66 -4 8 3 22 18 36 29 27 26 33 -37 75 -52 35 -67 38 -85 20z"/>
<path d="M4385 8292 l0 -207 30 -28 30 -27 177 1 176 2 26 51 c14 28 26 69 28 90 3 37 1 40 -30 50 -39 11 -52 -1 -52 -47 0 -16 -10 -38 -26 -54 -25 -25 -28 -25 -140 -21 -88 2 -117 7 -124 18 -5 8 -8 78 -7 155 l3 140 108 3 107 3 -3 -63 -3 -63 -73 -3 c-70 -3 -73 -4 -67 -25 4 -12 9 -30 11 -39 6 -21 79 -25 148 -7 51 13 69 40 72 109 1 25 3 52 4 60 1 8 -1 33 -3 55 -6 51 -10 52 -222 53 l-170 1 0 -207z"/>
<path d="M4162 8388 c-25 -25 -13 -52 39 -88 l51 -35 19 24 c29 35 23 53 -27 84 -50 30 -64 33 -82 15z"/>
<path d="M4908 8353 c7 -3 16 -2 19 1 4 3 -2 6 -13 5 -11 0 -14 -3 -6 -6z"/>
<path d="M4250 8207 c-19 -28 -49 -69 -67 -89 -18 -21 -30 -44 -27 -52 8 -21 55 -50 63 -39 21 23 131 182 131 188 0 9 -43 44 -55 45 -5 0 -26 -24 -45 -53z"/>
<path d="M5181 8674 c-35 -39 -33 -54 6 -54 15 0 36 -12 53 -30 33 -35 50 -37 75 -10 10 11 24 20 32 20 7 0 13 5 13 10 0 6 -6 10 -14 10 -8 0 -36 20 -64 45 -27 25 -54 45 -60 45 -5 0 -24 -16 -41 -36z"/>
<path d="M5787 8693 c-6 -10 -61 -13 -217 -13 -116 0 -211 -4 -214 -9 -11 -17 12 -58 36 -65 21 -6 22 -7 5 -20 -13 -10 -16 -22 -11 -47 7 -44 52 -156 76 -191 10 -14 18 -32 18 -40 0 -7 9 -24 20 -38 21 -26 27 -60 10 -60 -5 0 -24 -13 -42 -29 -29 -25 -125 -81 -160 -94 -14 -5 13 -42 43 -58 19 -10 109 25 109 41 0 5 15 17 33 26 17 9 44 28 59 42 24 22 31 24 54 13 14 -6 28 -20 31 -31 3 -11 11 -20 17 -20 6 0 35 -15 63 -34 79 -52 87 -53 112 -10 12 20 21 38 19 39 -2 1 -25 15 -53 31 -27 15 -54 34 -58 41 -4 7 -13 13 -20 13 -7 1 -25 11 -40 24 l-28 23 36 52 c19 29 35 61 35 71 0 11 4 21 9 25 6 3 26 57 46 119 31 98 35 120 28 162 -5 30 -12 44 -16 37z m-158 -94 l83 2 -7 -37 c-4 -21 -13 -51 -21 -66 -8 -15 -14 -32 -14 -39 0 -7 -14 -43 -32 -81 -21 -47 -36 -68 -47 -66 -28 6 -67 87 -106 222 -19 66 -11 82 35 70 14 -4 63 -6 109 -5z"/>
<path d="M5161 8496 c-11 -12 -21 -27 -21 -33 0 -12 99 -103 112 -103 3 0 20 14 37 31 l31 31 -47 31 c-27 17 -50 35 -51 39 -2 5 -12 13 -21 18 -14 7 -23 4 -40 -14z"/>
<path d="M5235 8278 c-4 -13 -16 -43 -27 -67 -10 -24 -28 -70 -38 -103 -18 -57 -18 -59 1 -72 38 -26 89 7 89 59 0 7 11 36 25 63 14 28 25 58 25 69 0 10 5 24 11 30 12 12 -6 26 -53 37 -22 5 -28 2 -33 -16z"/>
<path d="M6457 8733 c-36 -6 -44 -26 -22 -59 9 -14 14 -28 11 -31 -3 -3 -69 -6 -147 -7 l-142 -1 1 -79 c1 -80 8 -97 42 -95 38 3 50 -2 50 -21 0 -11 3 -20 8 -21 4 0 72 -2 151 -4 157 -4 192 -15 116 -38 -40 -11 -50 -19 -59 -47 l-11 -33 -157 0 -156 0 -5 -31 c-2 -17 1 -34 7 -38 6 -4 78 -8 159 -8 166 0 166 0 151 -73 l-9 -42 -70 -3 c-92 -3 -102 -7 -83 -30 8 -9 18 -25 21 -34 8 -23 81 -28 164 -13 42 7 64 48 69 123 2 30 7 59 12 64 4 4 69 8 145 9 147 1 165 7 153 53 l-6 24 -145 0 c-80 -1 -145 2 -145 6 -1 8 48 42 92 65 48 25 68 50 68 85 l0 34 -240 -1 -240 -2 0 32 c0 39 4 42 66 44 55 1 258 2 289 1 11 -1 49 -1 84 -1 53 0 62 -3 57 -16 -3 -8 -3 -29 0 -45 6 -26 10 -29 41 -28 18 1 36 5 39 10 3 5 8 39 11 77 l5 68 -28 8 c-16 3 -81 7 -144 8 l-114 2 -9 40 c-6 22 -10 41 -11 41 -5 6 -46 10 -69 7z"/>
<path d="M6930 8310 c0 -5 5 -10 10 -10 6 0 10 5 10 10 0 6 -4 10 -10 10 -5 0 -10 -4 -10 -10z"/>
<path d="M6070 8071 c0 -5 5 -13 10 -16 6 -3 10 -2 10 4 0 5 -4 13 -10 16 -5 3 -10 2 -10 -4z"/>
<path d="M2863 8655 c-19 -21 -16 -27 7 -13 11 7 20 16 20 20 0 12 -14 9 -27 -7z"/>
<path d="M2750 8270 c0 -5 5 -10 10 -10 6 0 10 5 10 10 0 6 -4 10 -10 10 -5 0 -10 -4 -10 -10z"/>
<path d="M2785 8200 c-3 -5 -1 -10 4 -10 6 0 11 5 11 10 0 6 -2 10 -4 10 -3 0 -8 -4 -11 -10z"/>
<path d="M2741 8124 c-18 -21 -6 -30 14 -11 8 9 15 18 15 21 0 11 -15 5 -29 -10z"/>
<path d="M2730 7964 c0 -8 5 -12 10 -9 6 4 8 11 5 16 -9 14 -15 11 -15 -7z"/>
<path d="M2610 7849 c0 -5 5 -7 10 -4 6 3 10 8 10 11 0 2 -4 4 -10 4 -5 0 -10 -5 -10 -11z"/>
<path d="M9670 8540 c-28 -3 -45 -10 -44 -17 1 -7 2 -22 3 -34 0 -11 5 -18 11 -14 5 3 114 7 242 9 l233 4 0 28 0 29 -200 0 c-110 0 -220 -2 -245 -5z"/>
<path d="M8493 8566 c-43 -36 -58 -99 -56 -233 1 -109 17 -174 47 -195 24 -17 106 -6 106 14 0 5 6 16 14 24 36 36 45 231 16 335 -20 71 -78 96 -127 55z"/>
<path d="M8986 8551 c-33 -35 -51 -138 -42 -246 3 -38 6 -79 6 -91 0 -11 13 -35 28 -52 37 -41 86 -44 121 -6 33 35 60 159 50 229 -5 27 -11 71 -14 97 -8 65 -36 98 -84 98 -28 0 -44 -7 -65 -29z"/>
<path d="M7999 8575 c-55 -30 -80 -135 -68 -292 4 -53 13 -94 26 -115 16 -29 25 -33 64 -36 39 -3 47 1 66 26 31 42 43 96 43 200 0 119 -14 175 -52 207 -34 29 -43 30 -79 10z"/>
<path d="M1960 7990 c0 -5 5 -10 10 -10 6 0 10 5 10 10 0 6 -4 10 -10 10 -5 0 -10 -4 -10 -10z"/>
<path d="M1915 7940 c3 -5 8 -10 11 -10 2 0 4 5 4 10 0 6 -5 10 -11 10 -5 0 -7 -4 -4 -10z"/>
<path d="M1840 7920 c0 -5 5 -10 10 -10 6 0 10 5 10 10 0 6 -4 10 -10 10 -5 0 -10 -4 -10 -10z"/>
<path d="M1720 7900 c0 -5 5 -10 11 -10 5 0 7 5 4 10 -3 6 -8 10 -11 10 -2 0 -4 -4 -4 -10z"/>
<path d="M1630 7850 c0 -5 5 -10 10 -10 6 0 10 5 10 10 0 6 -4 10 -10 10 -5 0 -10 -4 -10 -10z"/>
<path d="M1655 7830 c-3 -5 -1 -10 4 -10 6 0 11 5 11 10 0 6 -2 10 -4 10 -3 0 -8 -4 -11 -10z"/>
<path d="M1700 7829 c0 -5 5 -7 10 -4 6 3 10 8 10 11 0 2 -4 4 -10 4 -5 0 -10 -5 -10 -11z"/>
<path d="M1675 7800 c3 -5 8 -10 11 -10 2 0 4 5 4 10 0 6 -5 10 -11 10 -5 0 -7 -4 -4 -10z"/>
<path d="M1610 7780 c0 -5 5 -10 11 -10 5 0 7 5 4 10 -3 6 -8 10 -11 10 -2 0 -4 -4 -4 -10z"/>
<path d="M1440 7761 c0 -6 5 -13 10 -16 6 -3 10 1 10 9 0 9 -4 16 -10 16 -5 0 -10 -4 -10 -9z"/>
<path d="M2240 7946 c0 -4 7 -14 15 -22 8 -9 15 -11 15 -6 0 5 -7 15 -15 22 -8 7 -15 9 -15 6z"/>
<path d="M1020 7760 c0 -5 5 -10 10 -10 6 0 10 5 10 10 0 6 -4 10 -10 10 -5 0 -10 -4 -10 -10z"/>
<path d="M1160 7760 c0 -5 5 -10 10 -10 6 0 10 5 10 10 0 6 -4 10 -10 10 -5 0 -10 -4 -10 -10z"/>
<path d="M1292 7750 c-15 -24 -15 -30 -2 -30 6 0 10 7 10 15 0 8 5 15 10 15 6 0 10 5 10 10 0 16 -14 11 -28 -10z"/>
<path d="M5790 5891 c-112 -43 -164 -67 -177 -82 -12 -15 -47 -109 -41 -114 2 -1 22 -5 44 -9 37 -5 46 -2 90 32 27 20 65 48 86 62 37 25 131 111 143 130 12 20 -70 9 -145 -19z"/>
<path d="M5317 5815 l-59 -48 6 -46 c3 -25 7 -71 10 -101 13 -149 19 -190 26 -195 4 -3 22 11 39 30 51 58 107 185 81 185 -5 0 -10 -7 -10 -15 0 -25 -20 -17 -31 12 -14 38 -5 53 36 53 53 0 42 16 -16 23 -85 10 -104 46 -48 90 19 15 30 31 28 42 -3 15 -14 9 -62 -30z"/>
<path d="M5551 5624 c0 -11 3 -14 6 -6 3 7 2 16 -1 19 -3 4 -6 -2 -5 -13z"/>
<path d="M8929 6273 c-49 -54 -63 -86 -105 -233 -30 -108 -30 -110 6 -110 16 0 52 -5 80 -11 28 -6 54 -9 56 -6 3 3 7 69 10 146 3 78 9 153 14 167 6 14 10 36 10 50 0 34 -39 32 -71 -3z"/>
<path d="M8676 6063 c-20 -16 -62 -49 -93 -75 -31 -27 -61 -48 -66 -48 -6 0 -19 8 -29 17 -18 16 -21 15 -60 -24 -45 -45 -57 -85 -58 -189 0 -46 4 -63 15 -68 20 -7 19 -23 -2 -28 -15 -4 -18 -15 -15 -71 l4 -67 65 0 c51 0 166 22 181 35 1 1 -12 26 -29 54 -28 45 -36 51 -66 51 -45 0 -39 24 6 28 25 3 31 7 27 20 -3 9 -10 42 -16 72 -6 30 -15 70 -21 88 -15 47 0 62 66 62 63 0 97 22 100 66 1 16 3 39 3 52 1 12 9 22 17 22 8 0 15 7 15 15 0 20 -1 20 -44 -12z"/>
<path d="M8610 5801 c0 -5 7 -14 15 -21 13 -10 15 -9 15 9 0 12 -6 21 -15 21 -8 0 -15 -4 -15 -9z"/>
<path d="M8235 5730 c-24 -27 -29 -96 -6 -105 24 -9 32 9 29 70 l-3 57 -20 -22z"/>
<path d="M2440 5795 c-14 -8 -32 -15 -40 -15 -32 -1 -40 -18 -50 -115 -6 -54 -8 -100 -6 -102 2 -3 23 12 45 32 33 30 40 42 35 61 -5 21 -3 24 20 24 19 0 41 15 76 52 28 29 50 55 50 59 0 7 -52 19 -84 19 -11 -1 -32 -7 -46 -15z"/>
<path d="M1428 5317 c-24 -24 -56 -67 -72 -96 l-28 -53 33 -35 c61 -64 104 -102 116 -103 7 0 12 30 15 88 4 118 -2 242 -12 242 -5 0 -28 -19 -52 -43z"/>
<path d="M4753 5337 c-11 -12 -36 -46 -57 -75 l-38 -52 41 -49 c69 -82 68 -82 75 1 11 148 13 189 6 193 -4 2 -16 -6 -27 -18z"/>
<path d="M1676 1855 c-52 -46 -92 -48 -101 -5 -6 29 -8 30 -60 27 -54 -2 -54 -2 -59 -37 -12 -80 -10 -96 13 -126 20 -25 22 -36 16 -81 -3 -29 -3 -53 1 -53 21 0 254 276 254 301 0 18 -26 8 -64 -26z"/>
<path d="M10669 7302 l-307 -2 -5 -25 c-6 -32 2 -1542 9 -1572 3 -19 11 -23 39 -23 50 0 48 -28 -2 -32 l-38 -3 2 -780 c2 -429 5 -790 8 -803 l5 -22 800 0 800 0 14 28 14 27 11 -27 11 -28 800 0 800 0 -2 803 -3 802 -22 3 c-28 4 -31 32 -4 32 13 0 20 9 24 33 10 58 1 1567 -9 1577 -7 7 -1132 15 -1566 10 -34 0 -37 -2 -40 -32 -4 -42 -22 -43 -26 -1 l-3 33 -502 2 c-276 2 -640 2 -808 0z m1337 -227 c-4 -19 -11 -33 -17 -30 -10 7 -12 45 -3 70 12 30 27 -1 20 -40z m-1 -193 c-6 -14 -8 -13 -16 7 -6 16 -5 28 3 39 11 13 13 12 16 -7 2 -12 1 -30 -3 -39z m3 -159 c-4 -45 -22 -47 -21 -3 1 40 1 40 14 40 6 0 9 -16 7 -37z m2 -173 c0 -22 -4 -40 -10 -40 -5 0 -10 18 -10 40 0 22 5 40 10 40 6 0 10 -18 10 -40z m-226 -24 c31 -30 50 -122 42 -197 l-5 -57 47 -11 c26 -6 72 -15 102 -19 l55 -8 -1 -36 c-2 -63 -24 -84 -95 -92 -80 -9 -127 -29 -138 -58 -10 -29 -22 -128 -15 -128 4 0 34 29 68 65 83 87 119 89 75 4 -11 -23 -19 -43 -17 -44 2 -2 23 8 46 23 32 21 41 32 38 47 -3 11 -1 26 3 34 7 10 11 9 22 -7 14 -20 15 -20 57 5 32 19 49 39 72 87 37 78 60 166 60 227 0 45 -2 48 -37 66 -27 13 -39 25 -41 44 -4 31 15 48 62 56 43 7 93 -23 122 -72 19 -31 24 -137 10 -183 -11 -32 4 -28 83 23 53 34 79 45 110 45 60 0 64 -17 29 -130 -47 -150 -57 -198 -65 -310 -14 -191 -10 -279 18 -336 30 -61 101 -129 160 -150 50 -17 223 -24 238 -9 6 7 -10 39 -50 95 -33 47 -66 100 -74 118 -13 27 -21 32 -50 32 -19 0 -35 4 -35 9 0 12 37 24 50 16 5 -3 10 -1 10 4 0 19 36 12 56 -10 10 -12 62 -59 115 -104 76 -66 99 -93 113 -130 17 -42 17 -51 4 -98 -13 -46 -19 -53 -51 -64 -19 -7 -69 -15 -111 -19 -87 -8 -202 18 -296 67 -71 37 -88 52 -135 122 -22 32 -43 61 -48 64 -5 3 -27 -5 -50 -17 -35 -18 -47 -20 -69 -11 -17 6 -28 18 -28 30 0 22 -19 31 -66 31 -30 0 -37 -5 -48 -32 -7 -18 -16 -77 -20 -131 -5 -69 -13 -111 -27 -138 -22 -43 -56 -63 -77 -46 -35 28 -71 135 -72 212 -2 112 -14 155 -51 186 -19 15 -34 34 -34 41 0 7 -12 14 -27 16 -16 2 -28 9 -28 17 0 10 20 13 83 13 45 1 94 5 107 10 14 5 31 7 38 5 7 -3 19 10 27 31 17 39 41 184 32 192 -3 3 -20 -2 -37 -11 -31 -16 -32 -18 -27 -66 3 -26 2 -51 -3 -54 -12 -8 -28 24 -23 45 3 10 0 21 -5 24 -14 9 -72 -63 -79 -97 -8 -41 -27 -43 -71 -8 -37 29 -40 30 -55 13 -42 -46 -50 -98 -51 -327 -1 -265 10 -334 59 -359 16 -9 44 -27 62 -40 26 -19 41 -23 78 -18 61 6 85 -14 85 -75 0 -23 -4 -43 -10 -43 -5 0 -10 8 -10 18 0 32 -11 32 -64 -4 -87 -59 -121 -47 -184 67 -17 30 -42 60 -55 66 -45 21 -137 153 -137 196 0 23 -24 70 -45 87 -12 10 -43 14 -101 13 l-85 -1 -26 39 c-34 52 -23 78 49 112 33 16 92 63 155 124 125 120 153 156 153 201 0 18 5 52 11 76 6 23 9 57 7 75 l-3 32 -87 -45 c-121 -64 -212 -96 -269 -96 -61 0 -89 13 -115 54 -24 35 -21 50 19 94 26 28 83 32 72 5 -12 -33 -10 -38 21 -41 39 -4 198 56 257 96 23 16 61 39 84 51 45 23 47 25 62 129 8 52 7 76 -9 139 -11 42 -20 89 -20 104 0 58 61 78 104 35z m229 -162 c1 -16 -2 -31 -8 -34 -6 -3 -11 14 -13 40 -2 34 0 42 8 34 7 -7 13 -25 13 -40z m-1395 -701 c2 -9 -8 -13 -32 -13 -36 0 -56 14 -34 24 22 8 61 2 66 -11z m137 7 c4 -6 15 -8 26 -5 11 4 19 2 19 -4 0 -6 -18 -11 -39 -11 -38 0 -57 10 -44 24 10 9 31 7 38 -4z m223 -7 c2 -9 -9 -13 -37 -13 -39 0 -57 10 -44 24 12 11 76 2 81 -11z m180 0 c2 -9 -9 -13 -37 -13 -30 0 -41 4 -41 16 0 11 9 14 37 12 20 -2 38 -9 41 -15z m180 0 c2 -9 -9 -13 -37 -13 -39 0 -57 10 -44 24 12 11 76 2 81 -11z m182 2 c0 -11 -12 -15 -45 -15 -42 0 -54 7 -38 23 3 4 24 7 45 7 27 0 38 -4 38 -15z m1048 9 c37 -10 25 -24 -23 -24 -43 0 -60 12 -32 23 17 8 29 8 55 1z m560 -11 c2 -9 -10 -13 -42 -13 -43 0 -63 10 -49 24 12 11 86 2 91 -11z m156 11 c29 -11 16 -24 -24 -24 -54 0 -53 19 2 29 3 0 13 -2 22 -5z m191 -14 c0 -11 -9 -14 -30 -11 -43 5 -54 14 -25 22 35 10 55 6 55 -11z m-535 0 c0 -5 -18 -10 -40 -10 -22 0 -40 5 -40 10 0 6 18 10 40 10 22 0 40 -4 40 -10z m-926 -518 c-1 -7 -2 -25 -2 -42 -3 -48 -22 -34 -22 16 0 32 4 44 13 42 6 -3 12 -10 11 -16z m939 -3 c12 -7 53 -32 91 -57 62 -41 71 -52 106 -124 40 -83 57 -164 45 -217 -9 -40 -51 -91 -76 -91 -22 0 -99 73 -128 121 -25 41 -13 69 29 69 35 0 37 8 10 60 -29 56 -74 105 -137 147 -66 44 -83 71 -57 90 22 16 87 17 117 2z m-575 -64 c62 -29 90 -31 158 -10 125 38 157 1 49 -55 -36 -19 -80 -48 -98 -66 -56 -55 -96 -52 -167 12 -22 20 -64 49 -93 64 -87 45 -69 78 43 79 38 1 71 -7 108 -24z m-1061 -36 c7 -19 12 -66 12 -105 1 -68 2 -72 26 -78 35 -9 49 -40 33 -73 -7 -14 -20 -29 -28 -33 -8 -4 -25 -12 -38 -19 -58 -30 -94 23 -100 152 -5 94 13 167 46 187 25 14 36 7 49 -31z m698 -279 c0 -18 -6 -35 -12 -38 -9 -2 -13 9 -13 38 0 29 4 40 13 37 6 -2 12 -19 12 -37z m1 -155 c4 -8 3 -27 -1 -42 -5 -21 -8 -24 -16 -12 -12 19 -11 69 1 69 6 0 13 -7 16 -15z m-3 -192 c7 -39 1 -57 -14 -48 -11 8 -12 85 0 85 4 0 11 -16 14 -37z m7 -200 c0 -13 -4 -23 -9 -23 -17 0 -23 20 -16 48 5 20 8 23 16 11 5 -7 9 -24 9 -36z"/>
<path d="M12314 6096 c-33 -24 -67 -54 -76 -68 -9 -13 -25 -67 -37 -119 -11 -52 -25 -110 -31 -129 -5 -19 -10 -50 -10 -67 0 -29 3 -33 25 -33 15 0 38 -6 53 -14 15 -7 41 -17 58 -20 29 -7 32 -5 38 26 4 18 11 96 16 173 6 77 18 175 29 218 13 55 15 77 7 77 -7 0 -39 -20 -72 -44z"/>
<path d="M11552 5505 c-29 -30 -52 -59 -52 -65 0 -6 17 -18 38 -27 20 -8 45 -22 55 -31 16 -14 17 -13 17 20 0 19 3 63 6 97 4 35 3 61 -2 61 -5 0 -33 -25 -62 -55z"/>
<path d="M13644 7291 c4 -5 6 -358 6 -784 0 -427 3 -789 6 -806 5 -25 10 -30 28 -26 22 6 55 -10 44 -20 -3 -4 -21 -7 -40 -8 l-33 -2 -3 -650 c-2 -357 0 -719 4 -802 l6 -153 194 0 194 0 0 805 c0 798 0 805 -20 805 -11 0 -20 5 -20 10 0 6 9 10 20 10 20 0 20 7 20 815 l0 815 -206 0 c-120 0 -203 -4 -200 -9z m251 -1626 c0 -5 -17 -11 -37 -13 -38 -3 -53 12 -20 21 26 8 57 3 57 -8z"/>
<path d="M5803 3542 c-369 -2 -383 -3 -383 -21 0 -26 -10 -51 -21 -51 -5 0 -9 16 -9 35 l0 35 -821 -2 -821 -3 3 -570 c2 -603 5 -1012 8 -1032 0 -7 17 -15 36 -19 45 -8 45 -24 1 -24 -26 0 -35 -5 -40 -22 -11 -43 6 -1582 18 -1591 6 -4 373 -6 816 -5 l805 3 3 23 c4 27 22 30 22 3 0 -10 7 -21 15 -24 8 -4 370 -6 804 -6 592 1 793 4 798 12 8 11 11 1245 5 1489 -3 111 -4 117 -25 120 -29 4 -28 22 1 26 12 2 22 11 23 20 6 112 -5 1589 -11 1596 -10 10 -527 13 -1227 8z m-392 -235 l-8 -32 -8 37 c-4 21 -4 46 0 55 12 31 27 -23 16 -60z m9 -158 c0 -28 -4 -39 -15 -39 -11 0 -15 11 -15 38 0 21 3 42 6 45 14 13 24 -6 24 -44z m-2 -189 c-4 -43 -28 -53 -28 -12 0 17 3 38 6 47 10 26 26 1 22 -35z m2 -160 c0 -28 -11 -51 -21 -44 -10 6 -12 57 -3 67 11 10 24 -3 24 -23z m-149 -49 l24 -19 -31 -44 c-28 -38 -38 -44 -90 -55 -153 -31 -243 -69 -307 -131 -43 -42 -83 -120 -93 -181 l-7 -41 34 6 c19 3 40 8 47 10 21 6 75 -21 105 -53 39 -42 46 -92 16 -126 -36 -39 -61 -39 -74 1 -15 45 -27 54 -70 54 -48 0 -56 -13 -53 -86 l3 -58 65 -24 c36 -13 71 -24 78 -24 8 0 27 -9 44 -21 16 -12 31 -20 33 -18 15 15 41 401 29 432 -5 13 -13 17 -33 13 -61 -13 -61 37 -1 87 63 53 137 25 159 -59 12 -50 12 -179 -1 -272 -5 -41 -7 -76 -5 -79 3 -2 29 35 59 83 63 103 135 184 165 184 11 0 31 -9 44 -19 21 -17 24 -29 27 -108 2 -48 5 -95 8 -103 7 -21 159 142 191 205 31 60 63 168 63 211 0 37 -18 55 -47 48 -15 -4 -25 1 -33 17 -11 20 -9 26 19 51 53 47 150 34 170 -23 11 -33 0 -166 -19 -217 -7 -18 -10 -35 -7 -38 2 -3 33 5 68 16 50 17 82 21 142 18 72 -3 81 -6 103 -31 69 -80 -26 -249 -204 -364 -45 -29 -91 -54 -102 -56 -36 -6 -34 -17 3 -17 21 0 37 -4 37 -9 0 -17 -19 -22 -55 -15 -25 4 -35 11 -31 20 4 10 -3 14 -23 14 -16 0 -40 9 -55 21 -30 24 -51 20 -59 -10 -4 -16 0 -21 14 -21 29 0 23 -20 -9 -26 -22 -4 -33 -18 -55 -63 -15 -32 -27 -61 -27 -65 0 -4 -22 -52 -50 -107 -27 -55 -50 -107 -50 -116 0 -27 -118 -258 -145 -283 -30 -28 -67 -21 -83 15 -18 40 -15 55 28 125 36 57 68 121 116 225 54 120 84 187 84 190 0 1 -10 0 -23 -2 -13 -3 -33 4 -47 15 -23 19 -25 27 -32 168 -3 82 -7 153 -7 158 -1 13 -32 -15 -42 -39 -8 -17 -64 -125 -137 -261 -15 -27 -25 -71 -32 -135 -12 -123 -5 -360 13 -429 8 -30 15 -89 16 -130 0 -41 5 -99 11 -129 15 -78 13 -87 -19 -123 -29 -32 -31 -32 -57 -18 -15 8 -42 37 -60 63 -34 50 -38 62 -69 202 -10 44 -22 84 -26 90 -14 15 -10 91 5 104 17 14 26 4 60 -69 l26 -55 -5 64 c-3 36 -8 129 -12 208 -3 79 -9 143 -12 142 -3 0 -40 -40 -81 -89 -74 -88 -196 -205 -257 -248 -42 -30 -105 -30 -133 0 -37 40 -23 85 51 164 l52 54 13 208 c12 201 30 358 59 512 27 144 61 214 151 309 l65 70 -73 -6 c-86 -6 -141 11 -160 52 -20 44 -21 44 303 76 58 5 119 14 135 19 55 16 140 12 165 -9z m149 -147 c0 -24 -4 -44 -10 -44 -12 0 -24 65 -16 86 11 28 26 4 26 -42z m0 -175 c0 -28 -4 -39 -12 -36 -7 2 -13 9 -12 15 1 7 2 23 3 37 2 42 21 28 21 -16z m1108 -514 c2 -1 5 -36 7 -76 2 -41 18 -155 35 -254 24 -142 28 -186 20 -211 -12 -35 -64 -75 -122 -93 -20 -7 -42 -19 -48 -27 -7 -7 -25 -14 -40 -14 -15 0 -47 -8 -71 -17 -35 -13 -81 -17 -214 -17 -193 -1 -261 7 -325 40 -51 25 -117 99 -131 147 -5 18 -9 102 -8 187 l1 155 -35 0 c-45 0 -52 7 -27 30 11 10 20 24 20 31 0 22 69 35 113 22 53 -16 60 -39 53 -175 -4 -66 -1 -143 5 -188 14 -89 8 -85 147 -111 140 -25 296 -13 462 38 81 24 80 22 81 181 0 78 4 180 8 227 5 47 5 92 0 101 -12 23 9 40 40 32 14 -3 27 -7 29 -8z m-2520 -7 c-3 -7 -23 -14 -46 -16 -33 -2 -42 0 -42 12 0 12 11 16 46 16 32 0 44 -4 42 -12z m187 -3 c0 -11 -59 -19 -82 -11 -8 3 -11 11 -8 16 8 14 90 9 90 -5z m185 0 c0 -16 -43 -21 -74 -9 -27 10 -7 24 35 24 28 0 39 -4 39 -15z m180 0 c0 -11 -11 -15 -39 -15 -38 0 -57 10 -44 24 3 3 24 6 45 6 27 0 38 -4 38 -15z m723 0 c-4 -15 -76 -12 -81 3 -3 10 7 12 39 10 24 -2 43 -7 42 -13z m722 0 c0 -12 -50 -19 -71 -11 -9 3 -12 11 -9 16 8 14 80 9 80 -5z m180 5 c3 -5 3 -10 -2 -11 -4 0 -21 -2 -37 -4 -35 -5 -54 4 -35 16 19 12 66 11 74 -1z m170 -5 c0 -5 -19 -11 -42 -13 -34 -3 -43 0 -43 13 0 13 9 16 43 13 23 -2 42 -7 42 -13z m359 6 c7 -11 -17 -21 -50 -21 -15 0 -24 6 -24 15 0 17 65 22 74 6z m184 -3 c-5 -15 -52 -23 -76 -13 -15 6 -15 8 3 15 32 14 77 12 73 -2z m-1475 -520 c7 -19 -4 -78 -14 -78 -5 0 -9 20 -9 45 0 42 12 60 23 33z m-3 -213 c0 -25 -4 -45 -10 -45 -5 0 -10 20 -10 45 0 25 5 45 10 45 6 0 10 -20 10 -45z m3 -158 c7 -19 -4 -68 -14 -61 -12 7 -12 74 0 74 5 0 11 -6 14 -13z m2 -202 c0 -22 -5 -40 -12 -42 -9 -3 -13 9 -13 42 0 33 4 45 13 43 7 -3 12 -21 12 -43z m3 -185 c-5 -49 -28 -51 -28 -2 0 21 3 42 7 46 13 12 24 -12 21 -44z m-3 -178 c-3 -8 -5 -18 -5 -23 0 -5 -4 -9 -10 -9 -5 0 -10 19 -10 43 1 39 2 41 16 22 8 -11 12 -26 9 -33z"/>
<path d="M5855 2255 c-22 -7 -51 -16 -65 -19 -46 -10 -80 -49 -111 -126 -28 -69 -29 -75 -13 -87 20 -14 57 -8 95 16 94 58 219 182 219 218 0 17 -71 16 -125 -2z"/>
<path d="M4754 1863 c-4 -15 -1 -47 7 -72 7 -25 14 -75 15 -111 2 -36 3 -68 3 -73 5 -42 210 209 211 258 0 16 -4 13 -20 -12 -34 -56 -114 -74 -109 -24 3 34 -2 40 -38 50 -55 16 -62 14 -69 -16z"/>
<path d="M4620 1454 c0 -8 5 -12 10 -9 6 4 8 11 5 16 -9 14 -15 11 -15 -7z"/>
<path d="M7072 3535 c-7 -12 -3 -1595 4 -1607 3 -4 16 -8 29 -8 36 0 40 -19 5 -26 -17 -4 -33 -10 -35 -15 -9 -13 -6 -1592 3 -1601 4 -4 370 -7 812 -5 l805 2 -1 23 c0 12 5 22 13 22 7 0 12 -9 10 -22 l-2 -23 815 0 815 0 3 803 2 802 -25 12 c-32 14 -32 28 0 28 23 0 25 3 25 50 0 28 5 50 10 50 11 0 12 -5 14 -60 1 -31 4 -35 31 -38 17 -2 34 -7 39 -12 9 -9 -24 -22 -45 -18 -10 2 -15 -17 -20 -68 -5 -56 -5 -1486 0 -1541 1 -10 168 -13 799 -13 438 0 802 4 808 8 6 4 14 16 19 27 8 18 9 18 13 -7 l3 -28 804 0 803 0 4 138 c2 105 1 1165 -2 1433 0 39 -4 48 -21 52 -23 6 -17 27 7 27 10 0 14 13 14 48 2 254 -1 1567 -4 1569 -2 3 -642 4 -1314 3 l-304 0 7 -29 c3 -16 2 -32 -4 -35 -12 -8 -23 26 -15 47 5 15 -33 17 -428 19 -238 2 -604 1 -813 -2 l-380 -5 -2 -735 c-2 -855 -1 -760 -13 -760 -6 0 -10 228 -11 613 0 336 -2 673 -4 747 l-4 135 -178 5 c-98 3 -463 4 -810 2 l-633 -3 0 -34 c0 -18 -4 -36 -9 -39 -11 -7 -21 17 -21 50 0 22 -4 24 -52 25 -485 6 -1561 2 -1566 -6z m1648 -195 c0 -16 -4 -31 -9 -34 -11 -7 -25 49 -16 64 11 17 25 0 25 -30z m3291 -43 c-8 -8 -11 2 -10 39 l1 49 10 -38 c7 -28 7 -42 -1 -50z m-3291 -147 c0 -22 -4 -40 -10 -40 -5 0 -10 18 -10 40 0 22 5 40 10 40 6 0 10 -18 10 -40z m3300 -6 c0 -19 -4 -34 -10 -34 -5 0 -10 18 -10 41 0 24 4 38 10 34 6 -3 10 -22 10 -41z m-3299 -176 c2 -20 1 -40 -3 -43 -9 -9 -23 25 -22 50 1 11 2 27 3 35 2 27 19 -5 22 -42z m3299 2 c0 -22 -4 -40 -10 -40 -5 0 -10 18 -10 40 0 22 5 40 10 40 6 0 10 -18 10 -40z m-2830 -81 c87 -19 106 -64 45 -110 -27 -21 -50 -27 -110 -32 -84 -8 -165 -25 -165 -37 0 -4 16 -20 36 -35 l37 -28 -7 -186 c-3 -102 -9 -233 -12 -290 l-7 -104 64 7 c196 21 296 26 347 15 75 -15 92 -54 47 -107 l-24 -29 -162 -6 c-95 -3 -166 -10 -172 -16 -8 -8 -6 -11 7 -11 10 0 16 -6 14 -12 -6 -18 -79 -23 -89 -6 -6 10 -11 10 -20 1 -9 -9 -10 -23 -3 -50 l9 -38 75 -2 c93 -4 128 -16 159 -55 51 -64 34 -178 -51 -338 l-40 -75 24 -17 c13 -9 34 -26 48 -36 14 -11 52 -34 85 -52 99 -53 221 -158 276 -237 16 -23 35 -70 44 -104 13 -58 13 -66 -3 -94 -22 -37 -64 -54 -87 -35 -9 8 -26 32 -37 54 -11 23 -29 51 -40 63 -11 12 -34 50 -52 85 -27 54 -43 72 -121 130 -49 38 -118 82 -152 99 l-62 32 -33 -20 c-18 -11 -70 -49 -115 -86 -45 -36 -99 -71 -120 -76 -62 -17 -103 -47 -103 -76 0 -14 -4 -25 -10 -25 -5 0 -10 10 -10 23 0 20 -4 22 -39 19 -75 -7 -105 11 -142 86 -18 37 -37 72 -41 79 -6 8 -40 -20 -108 -87 -107 -106 -148 -128 -217 -115 -88 16 -99 113 -12 99 33 -6 41 -1 123 77 48 45 94 95 102 112 14 26 14 31 -2 48 -9 10 -22 19 -28 19 -29 0 -88 23 -93 36 -3 8 5 26 17 40 29 30 78 31 139 3 25 -11 51 -17 58 -15 12 5 83 139 83 158 0 15 -22 8 -146 -47 -69 -30 -132 -55 -142 -55 -26 0 -62 28 -62 49 0 29 51 68 120 91 36 12 85 33 110 47 112 62 189 66 235 11 14 -16 25 -36 25 -45 0 -10 6 -13 16 -9 11 4 18 -1 21 -14 7 -28 14 -25 41 14 13 19 48 58 78 86 30 28 54 54 54 57 0 3 -11 18 -25 35 -14 16 -28 41 -31 55 -4 13 -17 35 -30 48 l-24 24 -103 -40 c-56 -22 -183 -81 -281 -130 -212 -107 -385 -170 -468 -171 -67 -1 -88 12 -88 54 0 37 51 88 125 125 28 14 65 37 84 51 44 33 161 95 168 89 15 -16 -89 -109 -177 -160 -72 -42 -42 -48 55 -12 39 15 84 30 100 34 17 5 54 24 83 44 28 21 56 37 61 37 6 0 26 8 45 18 34 16 36 19 36 75 0 56 0 57 -25 51 -34 -9 -33 12 5 58 39 47 54 92 70 201 14 100 7 178 -21 250 -11 27 -23 72 -27 100 -7 51 -8 52 -72 85 -36 19 -65 39 -65 44 0 15 61 36 105 37 44 1 158 23 233 45 38 12 63 26 74 42 13 21 17 22 27 9 10 -13 22 -11 101 15 214 73 263 81 365 59z m3064 -63 c19 -12 25 -27 30 -79 7 -63 8 -64 50 -84 56 -27 166 -119 166 -139 0 -22 -43 -94 -56 -94 -6 0 -28 7 -47 15 -43 18 -101 19 -162 4 -33 -8 -50 -21 -74 -54 -17 -24 -53 -68 -80 -97 -26 -29 -51 -63 -55 -75 -4 -13 -13 -23 -20 -23 -6 0 -34 -22 -61 -50 -51 -52 -45 -66 14 -35 33 17 87 37 189 71 55 18 94 24 163 24 92 0 129 -10 129 -34 0 -8 -7 -19 -15 -26 -8 -7 -15 -20 -15 -30 0 -26 -48 -40 -180 -51 -121 -10 -152 -21 -106 -39 29 -11 87 -51 124 -86 12 -12 41 -34 65 -50 23 -16 74 -54 112 -85 39 -31 88 -67 110 -81 22 -14 65 -47 95 -73 57 -50 149 -98 210 -110 87 -17 390 -191 390 -224 0 -4 -9 -16 -20 -26 -23 -21 -13 -23 -195 44 -239 87 -301 113 -364 149 -71 41 -308 227 -338 266 -10 13 -34 31 -52 41 -19 9 -63 41 -98 71 -60 51 -93 67 -93 44 0 -6 -11 -15 -25 -20 -14 -5 -25 -16 -25 -25 0 -25 -14 -17 -29 15 -10 25 -11 33 0 46 19 23 -6 36 -60 31 -44 -5 -95 -37 -58 -37 19 0 23 -15 6 -25 -5 -4 -21 -8 -35 -10 -14 -1 -31 -11 -39 -21 -19 -25 -63 -91 -90 -134 -62 -99 -106 -172 -144 -235 -121 -202 -192 -304 -271 -388 -78 -86 -122 -94 -160 -33 -28 46 -18 88 35 142 47 49 62 54 74 22 8 -21 9 -20 34 17 15 22 55 81 89 131 126 183 228 349 228 373 0 8 7 23 17 33 9 10 14 20 12 22 -2 3 -42 -9 -89 -25 -47 -16 -90 -29 -95 -29 -6 0 -23 11 -38 25 -35 34 -35 69 1 92 15 10 31 23 35 30 4 7 25 13 46 13 49 0 111 41 223 148 l86 83 -23 37 c-62 96 -54 92 -177 92 -101 0 -112 2 -134 23 -29 27 -30 48 -3 73 17 16 34 18 122 16 136 -4 143 1 126 89 -16 81 -39 135 -78 178 -32 36 -47 68 -37 79 18 18 76 29 97 18 50 -26 93 -127 134 -310 5 -26 9 -28 38 -22 18 3 59 19 92 34 33 16 73 34 88 40 47 20 89 123 94 235 3 51 7 98 9 106 6 17 75 9 108 -13z m-234 -37 c0 -41 -14 -53 -25 -20 -7 24 4 73 16 65 5 -3 9 -23 9 -45z m0 -174 c0 -19 -4 -36 -9 -39 -10 -6 -19 39 -13 67 6 29 22 8 22 -28z m-4697 -710 c-4 -15 -76 -12 -81 3 -3 10 7 12 39 10 24 -2 43 -7 42 -13z m181 6 c7 -11 -17 -21 -49 -21 -25 0 -39 12 -28 24 10 9 71 7 77 -3z m184 -3 c-6 -16 -32 -22 -64 -14 -37 10 -19 26 27 26 28 0 39 -4 37 -12z m182 -3 c0 -11 -11 -15 -40 -15 -29 0 -40 4 -40 15 0 11 11 15 40 15 29 0 40 -4 40 -15z m164 9 c9 -3 13 -10 10 -15 -6 -10 -45 -12 -69 -3 -13 5 -14 8 -3 15 15 10 40 11 62 3z m200 -3 c7 -10 -27 -21 -66 -21 -18 0 -28 5 -28 15 0 11 12 15 44 15 25 0 47 -4 50 -9z m169 -6 c-1 -5 -9 -12 -18 -13 -26 -6 -66 7 -59 19 8 13 80 7 77 -6z m905 3 c-3 -7 -23 -14 -46 -16 -33 -2 -42 0 -42 12 0 12 11 16 46 16 32 0 44 -4 42 -12z m180 0 c-3 -8 -21 -13 -43 -13 -22 0 -40 5 -42 13 -3 8 9 12 42 12 33 0 45 -4 43 -12z m180 0 c-5 -15 -52 -23 -76 -13 -14 5 -14 7 -2 15 23 15 82 12 78 -2z m177 -3 c0 -12 -50 -19 -71 -11 -9 3 -12 11 -9 16 8 14 80 9 80 -5z m175 6 c0 -10 -50 -19 -68 -13 -27 9 -9 22 28 22 22 0 40 -4 40 -9z m174 0 c7 -10 -63 -26 -72 -16 -9 9 19 25 45 25 12 0 24 -4 27 -9z m440 0 c7 -11 -17 -21 -49 -21 -25 0 -39 12 -28 24 10 9 71 7 77 -3z m181 -6 c0 -11 -59 -19 -82 -11 -8 3 -11 11 -8 16 8 14 90 9 90 -5z m173 -2 c2 -9 -9 -13 -37 -13 -39 0 -50 8 -34 24 11 11 66 2 71 -11z m180 5 c-5 -15 -42 -22 -64 -14 -25 10 -5 26 32 26 24 0 34 -4 32 -12z m182 -3 c0 -16 -43 -21 -75 -9 -24 10 1 24 43 24 22 0 32 -5 32 -15z m1064 9 c25 -10 8 -24 -29 -24 -33 0 -51 11 -38 24 8 8 46 8 67 0z m174 -11 c2 -9 -9 -13 -37 -13 -40 0 -62 14 -39 24 22 9 71 2 76 -11z m166 11 c29 -11 17 -24 -23 -24 -38 0 -57 10 -44 24 8 8 46 8 67 0z m204 -12 c2 -8 -12 -12 -47 -12 -45 0 -61 7 -46 21 10 10 89 2 93 -9z m170 6 c-5 -15 -42 -22 -64 -14 -25 10 -5 26 32 26 24 0 34 -4 32 -12z m170 -5 c2 -9 -7 -13 -27 -13 -32 0 -50 15 -29 24 21 8 51 2 56 -11z m182 2 c11 -13 6 -15 -34 -15 -43 0 -55 7 -39 23 12 13 60 7 73 -8z m-1529 -111 c10 -9 21 -25 25 -36 4 -15 9 -17 20 -7 8 6 18 9 21 5 10 -10 4 -79 -7 -90 -14 -14 -12 -80 1 -93 12 -12 8 -74 -5 -105 -7 -16 -3 -17 37 -12 36 5 54 1 97 -20 28 -14 67 -26 85 -26 18 0 43 -8 56 -19 23 -18 23 -19 6 -63 -10 -25 -32 -62 -50 -83 -33 -38 -33 -38 -59 -21 -14 9 -38 37 -54 61 -28 45 -82 81 -97 66 -5 -5 -8 -97 -8 -205 1 -121 -2 -196 -8 -196 -6 0 -13 -17 -17 -37 -8 -50 -30 -83 -53 -83 -11 0 -35 17 -55 38 -35 37 -52 59 -122 160 -20 28 -40 55 -45 58 -10 6 -59 -40 -59 -55 0 -4 -16 -22 -35 -41 -33 -32 -35 -32 -59 -16 -44 28 -49 51 -42 167 9 156 52 269 101 269 38 0 48 -30 36 -110 -17 -108 -16 -109 55 -55 42 33 82 44 97 28 4 -3 -4 -25 -18 -49 -14 -23 -25 -49 -25 -56 0 -16 85 -108 99 -108 19 0 24 96 17 329 -8 299 -10 309 -60 337 -50 28 -63 51 -43 72 34 33 129 31 168 -4z m-3229 -68 c4 -39 0 -56 -13 -56 -5 0 -9 20 -9 45 0 53 16 61 22 11z m3792 -277 c25 -17 61 -52 78 -76 31 -46 68 -149 68 -191 0 -29 -46 -102 -65 -102 -34 0 -98 111 -80 140 7 12 -36 98 -71 139 -14 17 -39 38 -55 47 -16 8 -29 22 -29 32 0 52 83 58 154 11z m-3794 -629 c0 -22 -4 -40 -10 -40 -5 0 -10 18 -10 40 0 22 5 40 10 40 6 0 10 -18 10 -40z m3296 -39 c-16 -20 -26 37 -12 64 9 18 11 17 16 -15 3 -19 1 -41 -4 -49z m-3296 -152 c0 -24 -4 -38 -10 -34 -5 3 -10 22 -10 41 0 19 5 34 10 34 6 0 10 -18 10 -41z m3300 0 c0 -24 -4 -38 -10 -34 -17 10 -11 75 7 75 2 0 3 -18 3 -41z m-3300 -163 c0 -19 -4 -38 -10 -41 -6 -4 -10 10 -10 34 0 23 5 41 10 41 6 0 10 -15 10 -34z m3300 -16 c0 -22 -4 -40 -10 -40 -11 0 -14 63 -3 73 11 12 13 8 13 -33z"/>
<path d="M8785 2679 c-22 -10 -48 -18 -57 -18 -15 -1 -16 -8 -11 -51 4 -34 2 -50 -6 -50 -12 0 -15 18 -12 63 3 34 -8 35 -114 2 l-82 -26 30 -62 c16 -34 31 -64 32 -66 2 -1 39 9 82 23 79 26 119 32 139 18 36 -24 33 -92 -6 -127 -17 -15 -26 -17 -54 -8 -67 21 -143 -37 -134 -101 4 -30 38 -31 78 -4 45 30 138 32 168 4 17 -15 19 -23 11 -44 -14 -37 -47 -70 -91 -93 -33 -17 -37 -23 -36 -54 1 -19 -2 -38 -6 -42 -11 -11 -26 19 -20 39 8 27 -9 28 -61 2 -64 -30 -75 -46 -75 -110 0 -41 4 -54 18 -58 15 -5 79 16 253 84 l56 22 11 226 c6 125 8 260 3 301 -6 65 -10 76 -35 94 -15 11 -31 28 -34 37 -7 16 -9 16 -47 -1z"/>
<path d="M9055 1680 c-58 -13 -180 -86 -234 -141 -53 -54 -101 -151 -101 -205 0 -14 -6 -24 -15 -24 -20 0 -29 -21 -54 -119 -28 -111 -27 -124 2 -115 75 23 297 187 297 219 0 7 -19 20 -42 29 -54 21 -124 78 -114 94 11 18 144 15 201 -5 l48 -16 24 29 c34 43 65 132 67 193 1 50 -1 55 -24 61 -14 3 -38 3 -55 0z m-335 -479 c0 -5 3 -23 6 -40 5 -24 3 -31 -10 -31 -12 0 -16 10 -16 40 0 22 5 40 10 40 6 0 10 -4 10 -9z"/>
<path d="M8680 1523 c0 -24 -41 -111 -87 -184 -20 -33 -34 -62 -31 -64 9 -9 38 7 38 20 0 8 16 34 35 59 48 63 71 116 67 154 -3 33 -22 46 -22 15z"/>
<path d="M11902 2323 c-37 -13 -43 -19 -38 -37 3 -11 6 -28 6 -36 0 -8 19 4 45 30 64 63 62 70 -13 43z"/>
<path d="M13659 3438 c-1 -57 0 -420 1 -808 2 -592 4 -706 16 -713 19 -11 18 -27 -1 -27 -13 0 -15 -31 -16 -217 -2 -550 3 -1387 7 -1395 3 -4 90 -8 195 -8 l189 0 0 808 c0 569 -3 811 -11 819 -8 8 -8 13 0 17 8 5 11 245 11 817 l0 809 -195 0 -195 0 -1 -102z m76 -1528 c3 -6 -1 -13 -10 -16 -19 -8 -30 0 -20 15 8 14 22 14 30 1z m180 -5 c0 -5 -17 -11 -37 -12 -27 -2 -38 2 -38 12 0 10 11 14 38 12 20 -1 37 -6 37 -12z"/>
</g>
</g>
</svg>
